<svg width="32" height="32" viewBox="0 0 32 32" fill="none" xmlns="http://www.w3.org/2000/svg">
<circle cx="16" cy="16" r="15.984" fill="url(#paint0_linear_9_1121)" stroke="#0C1729" stroke-width="0.032"/>
<g filter="url(#filter0_i_9_1121)">
<path d="M30.65 16C30.65 24.091 24.091 30.65 16 30.65C7.90903 30.65 1.35 24.091 1.35 16C1.35 7.90903 7.90903 1.35 16 1.35C24.091 1.35 30.65 7.90903 30.65 16Z" stroke="url(#paint1_linear_9_1121)" stroke-width="2.7"/>
</g>
<g filter="url(#filter1_i_9_1121)">
<path d="M25.7578 14.8487C25.7849 13.7749 25.5636 12.709 25.1104 11.7315C24.6573 10.7541 23.9149 9.8906 23.0726 9.20631C21.4646 7.9674 19.516 7.23008 17.478 7.08928C16.9111 6.52057 16.2365 6.06635 15.4922 5.75221C14.6224 5.43539 13.6993 5.24333 12.772 5.26571C11.4708 5.26571 10.5466 5.79301 10.2066 6.2387C10.1701 6.2787 10.1421 6.32551 10.1243 6.37635C10.1065 6.4272 10.0993 6.48103 10.1031 6.53467C10.1069 6.5883 10.1217 6.64064 10.1465 6.68856C10.1712 6.73648 10.2056 6.77902 10.2474 6.81364C10.7683 7.14799 11.2068 7.64924 11.4944 8.19152V8.23163H11.4536C9.8503 9.0731 8.55406 10.2493 7.62756 11.7864C6.70105 13.3235 6.2213 15.0811 6.24055 16.8677C6.22924 18.2238 6.4848 19.5692 6.99315 20.8299C7.47492 22.0043 8.10382 23.0669 9.02714 23.9498C9.96025 24.8368 11.068 25.5269 12.2824 25.9776C13.5863 26.4594 14.9685 26.7489 16.3615 26.7355C18.1749 26.7355 18.6651 26.0078 18.6997 25.967C18.7343 25.9262 18.7758 25.7018 18.4853 25.7222C18.1947 25.7426 18.1532 25.7494 17.7243 25.695C17.2954 25.6406 15.5711 25.2529 15.5175 23.2739C15.5063 22.8614 15.5748 22.4948 15.7307 22.1116C15.8866 21.7284 16.1205 21.3805 16.4181 21.0893C16.4514 21.0585 16.4755 21.0192 16.4876 20.9757C16.4997 20.9323 16.4995 20.8865 16.4868 20.8432C16.4742 20.7999 16.4496 20.7609 16.4159 20.7304C16.3822 20.6999 16.3406 20.6791 16.2956 20.6704C16.1255 20.6368 15.9523 20.6204 15.7788 20.6214C15.101 20.6476 14.6417 20.9193 14.1685 21.397C13.7257 21.8438 13.4694 22.6755 13.4628 23.1719C13.4563 23.6684 13.4993 24.1723 13.8428 24.7271C13.1827 24.2607 12.5981 22.8231 12.439 21.3517C12.2799 19.8804 12.8424 18.4572 13.6358 17.6906C14.4413 16.9287 15.4859 16.48 16.6036 16.4936C17.2508 16.4653 17.8909 16.56 18.4849 16.8142C19.0789 17.0683 19.6475 17.4525 20.0675 17.9374C20.6834 18.6953 21.1088 19.6291 21.2467 20.5897C21.3374 21.1958 21.4689 21.7886 21.9449 21.7886C22.059 21.7803 22.1701 21.7491 22.2715 21.697C22.3728 21.6448 22.4623 21.5729 22.5343 21.4855C22.7194 21.2681 22.8588 21.0166 22.9445 20.7458C23.0301 20.475 23.0602 20.1901 23.033 19.9078C23.033 19.8499 23.033 19.7875 23.033 19.7117V19.6805H23.0602C23.6199 19.3646 24.1175 18.9252 24.5291 18.4366C25.3559 17.4203 25.791 16.1496 25.7578 14.8487ZM23.0149 17.2065C22.8424 17.4098 22.6461 17.6195 22.43 17.7774L22.3847 17.8086L22.3575 17.764C22.0293 17.2337 21.5622 16.7209 21.105 16.2928C19.885 15.1771 18.2783 14.5603 16.6121 14.568C15.7971 14.5535 14.9875 14.7004 14.2314 15C13.4754 15.2995 12.7884 15.7456 12.2114 16.3116C11.6344 16.8776 11.276 17.5519 10.9696 18.2945C10.6632 19.037 10.512 19.8326 10.5249 20.6338C10.5452 21.8934 10.6437 22.1974 10.9511 23.0678C10.8151 22.9519 8.18392 21.116 8.18098 16.8677C8.17184 15.282 8.64552 13.7298 9.5411 12.4108C10.4144 11.1424 11.6194 10.1537 13.0588 9.56732C13.3909 9.43397 13.7299 9.31793 14.0744 9.21968C13.8097 8.42211 13.3649 7.69377 12.7732 7.08928C13.5324 6.97119 14.241 7.08476 14.9325 7.41469C15.624 7.74462 16.2513 8.30224 16.6266 8.96164L17.0165 8.98838C18.7807 9.04099 20.429 9.6058 21.8349 10.6548C22.4585 11.1599 23.0245 11.7992 23.3563 12.5234C23.6881 13.2476 23.8458 14.0372 23.8173 14.8309C23.8478 15.6917 23.563 16.5346 23.0149 17.2065Z" fill="url(#paint2_linear_9_1121)"/>
</g>
<defs>
<filter id="filter0_i_9_1121" x="-0.3" y="-0.328" width="32.3" height="32.328" filterUnits="userSpaceOnUse" color-interpolation-filters="sRGB">
<feFlood flood-opacity="0" result="BackgroundImageFix"/>
<feBlend mode="normal" in="SourceGraphic" in2="BackgroundImageFix" result="shape"/>
<feColorMatrix in="SourceAlpha" type="matrix" values="0 0 0 0 0 0 0 0 0 0 0 0 0 0 0 0 0 0 127 0" result="hardAlpha"/>
<feMorphology radius="0.128" operator="erode" in="SourceAlpha" result="effect1_innerShadow_9_1121"/>
<feOffset dx="-0.3" dy="-0.5"/>
<feGaussianBlur stdDeviation="0.1"/>
<feComposite in2="hardAlpha" operator="arithmetic" k2="-1" k3="1"/>
<feColorMatrix type="matrix" values="0 0 0 0 0.519108 0 0 0 0 0.409361 0 0 0 0 0.234232 0 0 0 1 0"/>
<feBlend mode="normal" in2="shape" result="effect1_innerShadow_9_1121"/>
</filter>
<filter id="filter1_i_9_1121" x="3.54551" y="3.54537" width="24.1666" height="24.1666" filterUnits="userSpaceOnUse" color-interpolation-filters="sRGB">
<feFlood flood-opacity="0" result="BackgroundImageFix"/>
<feBlend mode="normal" in="SourceGraphic" in2="BackgroundImageFix" result="shape"/>
<feColorMatrix in="SourceAlpha" type="matrix" values="0 0 0 0 0 0 0 0 0 0 0 0 0 0 0 0 0 0 127 0" result="hardAlpha"/>
<feOffset dx="-0.742574" dy="-1.11386"/>
<feGaussianBlur stdDeviation="0.371287"/>
<feComposite in2="hardAlpha" operator="arithmetic" k2="-1" k3="1"/>
<feColorMatrix type="matrix" values="0 0 0 0 0.6 0 0 0 0 0.45098 0 0 0 0 0.207843 0 0 0 1 0"/>
<feBlend mode="normal" in2="shape" result="effect1_innerShadow_9_1121"/>
</filter>
<linearGradient id="paint0_linear_9_1121" x1="5.2" y1="0.735999" x2="38.644" y2="41.144" gradientUnits="userSpaceOnUse">
<stop offset="0.0180635" stop-color="#DEB565"/>
<stop offset="0.315" stop-color="#EDC871"/>
<stop offset="0.870775" stop-color="#FFFFA8"/>
</linearGradient>
<linearGradient id="paint1_linear_9_1121" x1="29.144" y1="29.644" x2="1.01933e-08" y2="-1.00214e-08" gradientUnits="userSpaceOnUse">
<stop stop-color="#C4954B"/>
<stop offset="0.35" stop-color="#EEC66E"/>
<stop offset="0.495" stop-color="#FFFFA0"/>
<stop offset="0.62" stop-color="#FADA82"/>
<stop offset="1" stop-color="#C4954B"/>
</linearGradient>
<linearGradient id="paint2_linear_9_1121" x1="8.63997" y1="10.3199" x2="23.616" y2="21.8559" gradientUnits="userSpaceOnUse">
<stop offset="0.51" stop-color="#FFF9D5"/>
<stop offset="1" stop-color="#FFE897"/>
</linearGradient>
</defs>
</svg>
