<svg width="35" height="34" viewBox="0 0 35 34" fill="none" xmlns="http://www.w3.org/2000/svg">
<path d="M7.04256 22.4048C5.23643 24.5728 4.11938 27.5664 4.11938 30.8742H24.0821C24.0821 27.5664 22.9651 24.5718 21.1589 22.4048" stroke="#888888" stroke-width="3" stroke-linecap="round" stroke-linejoin="round"/>
<path d="M14.1013 20.1253C17.9692 20.1253 21.1047 17.0086 21.1047 13.164C21.1047 9.31946 17.9692 6.20282 14.1013 6.20282C10.2333 6.20282 7.09778 9.31946 7.09778 13.164C7.09778 17.0086 10.2333 20.1253 14.1013 20.1253Z" stroke="#888888" stroke-width="3" stroke-linecap="round" stroke-linejoin="round"/>
<path d="M20.6865 3.80511C21.4341 3.4389 22.2738 3.23413 23.1622 3.23413C26.2761 3.23413 28.8005 5.75859 28.8005 8.87245C28.8005 11.1347 27.4679 13.086 25.5458 13.9831" stroke="#888888" stroke-width="3" stroke-linecap="round" stroke-linejoin="round"/>
<path d="M28.6889 26.2673H31.7605C31.7605 22.7808 30.5687 19.6582 28.6889 17.5607" stroke="#888888" stroke-width="3" stroke-linecap="round" stroke-linejoin="round"/>
</svg>
