<svg width="33" height="32" viewBox="0 0 33 32" fill="none" xmlns="http://www.w3.org/2000/svg">
<path fill-rule="evenodd" clip-rule="evenodd" d="M20.2485 3.63478C20.8305 3.16503 21.5103 2.90909 22.2262 2.90909C24.0354 2.90909 25.8175 4.67424 25.8175 7.27272C25.8175 8.6417 25.2986 9.82898 24.5317 10.6123C24.0751 11.0785 23.5385 11.3954 22.9708 11.5419C22.202 11.7404 21.7376 12.5323 21.9336 13.3107C22.1296 14.0891 22.9117 14.5592 23.6805 14.3608C24.7946 14.0733 25.7809 13.4684 26.572 12.6604C27.8926 11.3116 28.6905 9.37921 28.6905 7.27272C28.6905 3.44463 25.9705 0 22.2262 0C20.8056 0 19.5045 0.515065 18.4577 1.36003C17.8373 1.86078 17.7353 2.77593 18.2298 3.40409C18.7244 4.03224 19.6282 4.13553 20.2485 3.63478ZM4.26958 11.6363C4.26958 6.96437 7.6683 2.90909 12.1705 2.90909C16.6726 2.90909 20.0713 6.96437 20.0713 11.6363C20.0713 16.3084 16.6726 20.3636 12.1705 20.3636C7.6683 20.3636 4.26958 16.3084 4.26958 11.6363ZM12.1705 5.81818C9.53229 5.81818 7.14263 8.27512 7.14263 11.6363C7.14263 14.9976 9.53229 17.4545 12.1705 17.4545C14.8086 17.4545 17.1983 14.9976 17.1983 11.6363C17.1983 8.27512 14.8086 5.81818 12.1705 5.81818ZM27.7449 15.3603C26.9993 15.0857 26.175 15.4752 25.904 16.2302C25.6328 16.9851 26.0175 17.8197 26.763 18.0942C28.6479 18.7882 29.4245 19.6725 29.7685 20.3005C30.1248 20.951 30.127 21.5192 30.127 21.8182C30.127 22.6212 29.4836 23.2727 28.6901 23.2727H27.254C26.4606 23.2727 25.8174 23.9239 25.8174 24.7272C25.8174 25.5306 26.4617 26.1818 27.255 26.1818H28.6901C31.0699 26.1818 33 24.2282 33 21.8182V21.8145C33 21.383 33 20.2022 32.281 18.8896C31.5476 17.5507 30.1695 16.253 27.7449 15.3603ZM18.6345 22.1717C18.045 21.6341 17.9975 20.7144 18.5284 20.1174C19.0594 19.5206 19.9677 19.4725 20.5572 20.0101C23.2093 22.4286 24.2925 25.1464 24.3976 27.3854C24.4494 28.4866 24.2649 29.5202 23.8582 30.3367C23.4814 31.0933 22.713 32 21.5079 32H12.895H12.8886H2.87088C1.66828 32 0.924175 31.0363 0.575293 30.3394C0.17464 29.539 -0.032181 28.5156 0.00407684 27.4064C0.0779729 25.1458 1.1579 22.4102 3.95039 19.9866C4.55276 19.4637 5.45964 19.5344 5.97596 20.1443C6.49228 20.7542 6.42254 21.6725 5.82017 22.1953C3.58497 24.1353 2.92052 26.1269 2.87555 27.5027C2.85827 28.0312 2.9106 28.6209 3.17313 29.0909H11.447H11.4534H21.2591C21.5184 28.6308 21.552 28.0391 21.5278 27.5236C21.4622 26.1262 20.7674 24.1168 18.6345 22.1717Z" fill="#757575"/>
</svg>
