<svg xmlns="http://www.w3.org/2000/svg" width="24" height="24" viewBox="0 0 24 24" fill="none" class="injected-svg" data-src="https://cdn.hugeicons.com/icons/energy-solid-standard.svg" xmlns:xlink="http://www.w3.org/1999/xlink" role="img" color="#000000">
<path fill-rule="evenodd" clip-rule="evenodd" d="M13.7372 2.28846C14.0434 2.39054 14.25 2.67715 14.25 2.99997V10.25H18C18.2841 10.25 18.5438 10.4105 18.6708 10.6646C18.7979 10.9187 18.7705 11.2227 18.6 11.45L11.1002 21.4498C10.9065 21.7081 10.5692 21.8134 10.263 21.7114C9.95673 21.6093 9.75016 21.3227 9.75016 20.9998V13.7499H6.00016C5.71608 13.7499 5.45638 13.5893 5.32934 13.3353C5.20229 13.0812 5.22971 12.7771 5.40016 12.5499L12.9 2.54997C13.0937 2.29171 13.4309 2.18637 13.7372 2.28846Z" fill="#000000"></path>
</svg>