<svg width="35" height="34" viewBox="0 0 35 34" fill="none" xmlns="http://www.w3.org/2000/svg">
<path d="M9.94805 6.18152C9.94805 4.63641 8.40295 3.09021 6.85675 3.09021C5.3956 3.09021 3.6117 4.63423 3.66294 7.72662C3.76544 13.9081 12.0983 16.9994 12.0983 16.9994" stroke="#888888" stroke-width="3" stroke-linecap="round" stroke-linejoin="round"/>
<path d="M25.4024 6.18152C25.4024 4.63641 26.9475 3.09021 28.4937 3.09021C29.9548 3.09021 31.7387 4.63423 31.6875 7.72662C31.585 13.9081 23.2521 16.9994 23.2521 16.9994" stroke="#888888" stroke-width="3" stroke-linecap="round" stroke-linejoin="round"/>
<path d="M25.4023 6.18152C25.4023 16.9995 20.1586 21.6359 20.1586 21.6359C20.1586 21.6359 20.1586 27.8174 24.265 30.9087H11.0853C15.1918 27.8174 15.1918 21.6359 15.1918 21.6359C15.1918 21.6359 9.948 16.9995 9.948 6.18152H25.4023Z" stroke="#888888" stroke-width="3" stroke-linecap="round" stroke-linejoin="round"/>
</svg>
