<svg width="32" height="32" viewBox="0 0 32 32" fill="none" xmlns="http://www.w3.org/2000/svg">
<path d="M9.77743 29.9989H11.3329V28.4434V23.777C11.3329 22.059 9.94008 20.666 8.22194 20.666H5.11097C3.39283 20.666 2 22.059 2 23.777V28.4434V29.9989H3.55548H9.77743Z" stroke="#757575" stroke-width="3"/>
<path d="M19.1101 29.9998H20.6656V28.4443V14.4449C20.6656 12.7269 19.2728 11.334 17.5547 11.334H14.4437C12.7257 11.334 11.3328 12.7269 11.3328 14.4449V28.4443V29.9998H12.8882H19.1101Z" stroke="#757575" stroke-width="3"/>
<path d="M28.4436 29.9987H29.999V28.4432V5.11097C29.999 3.39284 28.6063 2 26.8881 2H23.7771C22.0591 2 20.6661 3.39284 20.6661 5.11097V28.4432V29.9987H22.2216H28.4436Z" stroke="#757575" stroke-width="3"/>
</svg>
