<svg width="65" height="92" viewBox="0 0 65 92" fill="none" xmlns="http://www.w3.org/2000/svg">
<g filter="url(#filter0_d_272_2722)">
<path d="M46.6851 2H18.27C11.4935 2 6 7.51265 6 14.3129V69.6832C6 76.4834 11.4935 81.996 18.27 81.996H46.6851C53.4616 81.996 58.9551 76.4834 58.9551 69.6832V14.3129C58.9551 7.51265 53.4616 2 46.6851 2Z" fill="url(#paint0_linear_272_2722)"/>
<path d="M46.6851 2H18.27C11.4935 2 6 7.51265 6 14.3129V69.6832C6 76.4834 11.4935 81.996 18.27 81.996H46.6851C53.4616 81.996 58.9551 76.4834 58.9551 69.6832V14.3129C58.9551 7.51265 53.4616 2 46.6851 2Z" fill="#2D3236"/>
<path d="M46.6851 2H18.27C11.4935 2 6 7.51265 6 14.3129V69.6832C6 76.4834 11.4935 81.996 18.27 81.996H46.6851C53.4616 81.996 58.9551 76.4834 58.9551 69.6832V14.3129C58.9551 7.51265 53.4616 2 46.6851 2Z" stroke="url(#paint1_linear_272_2722)"/>
<path d="M46.689 2H18.27C11.5036 2 6 7.52282 6 14.3129V69.6871C6 76.4772 11.5036 82 18.27 82H46.689C53.4554 82 58.9591 76.4772 58.9591 69.6871V14.3129C58.9591 7.52282 53.4554 2 46.689 2ZM7.53031 14.3129C7.53031 8.36763 12.3455 3.53565 18.27 3.53565H46.689C52.6096 3.53565 57.4287 8.37158 57.4287 14.3129V38.7372C57.0078 38.3819 56.5161 38.1056 55.9692 37.9319L54.3681 37.4227V14.3129C54.3681 10.0651 50.922 6.60696 46.689 6.60696H18.27C14.0371 6.60696 10.5909 10.0651 10.5909 14.3129V37.4266L9.00162 37.9319C8.46266 38.1017 7.96305 38.3859 7.53031 38.7491V14.3129ZM13.3408 47.4379L12.1213 47.8367V47.055L13.3408 47.4379ZM17.5659 48.7683L12.1173 51.5554V49.4473L15.8507 48.2314L17.5659 48.7723V48.7683ZM18.7067 54.7451L12.1213 61.3536V57.7927L18.0969 53.4345C18.2228 53.8964 18.4274 54.3385 18.7067 54.7412V54.7451ZM18.1402 51.0343C18.0812 51.2277 18.034 51.4212 18.0025 51.6146L12.1213 55.9018V53.2726L18.4589 50.0316L18.1442 51.0303L18.1402 51.0343ZM12.1213 63.5208L19.7846 55.8307C20.1859 56.1071 20.6265 56.3124 21.0907 56.4347L12.1173 68.8265V63.5208H12.1213ZM22.92 56.5176C23.1088 56.4861 23.2937 56.4426 23.4786 56.3834L24.4896 56.0637L14.9419 74.8665C13.6476 74.0257 12.6917 72.715 12.3101 71.1715L22.92 56.5176ZM25.7249 57.0032L26.2678 58.7283L20.7209 75.8534H18.2661C17.5855 75.8534 16.9286 75.735 16.3149 75.5297L25.721 57.0032H25.7249ZM27.0625 61.2391L28.1404 64.6578L26.374 75.8534H22.3299L27.0625 61.2391ZM29.3009 67.1093C29.9264 67.8199 30.7761 68.3055 31.7281 68.4752V75.8495H27.9201L29.3009 67.1054V67.1093ZM33.2545 68.4673C34.1987 68.2897 35.0523 67.7923 35.6778 67.0777L37.0626 75.8495H33.2545V68.4673ZM36.8344 64.6144L37.9084 61.2075L42.6488 75.8534H38.6047L36.8305 64.6183L36.8344 64.6144ZM38.7031 58.6928L39.246 56.9756L48.6599 75.5179C48.0423 75.7271 47.3814 75.8495 46.693 75.8495H44.2578L38.7031 58.6928ZM40.4458 55.965L41.3624 56.2531C41.567 56.3163 41.7716 56.3637 41.9801 56.3992L52.6568 71.1478C52.2792 72.6913 51.3272 74.0099 50.0329 74.8507L40.4419 55.965H40.4458ZM43.7897 56.2887C44.2421 56.1623 44.6709 55.9571 45.0604 55.6847L52.8417 63.4932V68.791L43.7897 56.2887ZM46.1343 54.5951C46.4058 54.2003 46.6064 53.7701 46.7284 53.3161L52.8417 57.773V61.3259L46.1343 54.5951ZM46.8306 51.4962C46.7992 51.2988 46.752 51.1014 46.693 50.904L46.3979 49.9566L52.8417 53.2529V55.8781L46.8306 51.4962ZM47.4365 48.7683L49.1478 48.2235L52.8417 49.4276V51.5317L47.4365 48.7683ZM51.6537 47.4301L52.8457 47.0511V47.8169L51.6537 47.4301ZM51.6734 45.8115L49.1517 46.6129L46.6497 47.4064L45.497 47.7735L44.2421 48.1722L44.4939 48.9815L44.8204 50.0237L45.2374 51.362C45.3357 51.6738 45.3672 51.9936 45.3515 52.3055C45.3318 52.716 45.2256 53.1187 45.0289 53.4779C44.9069 53.7069 44.7496 53.9201 44.5607 54.1096C44.3798 54.2911 44.1752 54.4451 43.9549 54.5675C43.6009 54.7649 43.2035 54.8793 42.7905 54.903C42.7393 54.903 42.6882 54.9109 42.637 54.9109C42.3617 54.9109 42.0863 54.8675 41.8227 54.7846L40.5206 54.374L39.4741 54.0464L38.648 53.7858L38.2585 55.0215L37.8927 56.1781L37.1019 58.6889L36.3033 61.2154L35.2726 64.4801L35.0799 65.092C34.8084 65.9605 34.1082 66.6198 33.2585 66.8764C33.0106 66.9514 32.751 66.9988 32.4835 66.9988C32.2238 66.9988 31.9721 66.9553 31.7321 66.8882C30.8705 66.6395 30.1703 65.9842 29.891 65.092L29.71 64.5236L28.6793 61.2588L27.8768 58.7205L27.0861 56.2097L26.7202 55.0452L26.3425 53.853L25.4692 54.1293L24.3952 54.4688L23.0183 54.907C22.7508 54.9899 22.4755 55.0333 22.1961 55.0333C22.1647 55.0333 22.1332 55.0333 22.1017 55.0294C21.6729 55.0136 21.2638 54.903 20.8979 54.7017C20.6698 54.5793 20.4613 54.4214 20.2724 54.2319C20.0875 54.0464 19.9341 53.8411 19.8122 53.62C19.6076 53.249 19.4974 52.8344 19.4817 52.412C19.4699 52.1002 19.5053 51.7844 19.5997 51.4764L20.0285 50.1184L20.3708 49.0368L20.6619 48.113L19.5171 47.7538L18.3645 47.3906L15.8507 46.601L13.3211 45.8036L10.5909 44.943L9.45796 44.5877C8.32104 44.2285 7.55392 43.1823 7.54998 41.9862C7.54998 41.2559 7.82929 40.569 8.34464 40.0518C8.65543 39.7399 9.03702 39.507 9.45402 39.3768L10.587 39.0175L13.2936 38.1569L15.8192 37.3555L18.3212 36.5621L19.4778 36.1949L20.6462 35.8238L20.3629 34.9277L20.0207 33.846L19.5919 32.488C19.4935 32.1801 19.4581 31.8643 19.4699 31.5524C19.4856 31.13 19.5958 30.7155 19.8004 30.3444C19.9223 30.1234 20.0757 29.9181 20.2606 29.7325C20.4455 29.547 20.658 29.3891 20.8822 29.2667C21.2481 29.0654 21.6611 28.9548 22.086 28.9391C22.1175 28.9391 22.1489 28.9351 22.1804 28.9351C22.4558 28.9351 22.7312 28.9785 22.9987 29.0614L24.3795 29.4996L25.4535 29.8391L26.3268 30.1155L26.7045 28.9233L27.0703 27.7587L27.8611 25.248L28.6636 22.7096L29.6943 19.4449L29.8752 18.8724C30.1467 18 30.8587 17.3368 31.7163 17.0802C31.9602 17.0091 32.212 16.9657 32.4717 16.9657C32.7392 16.9657 32.9988 17.0091 33.2427 17.0841C34.0964 17.3368 34.7888 17.9921 35.0641 18.8764L35.2569 19.4883L36.2837 22.7728L37.0744 25.3072L37.8612 27.8298L38.2192 28.9785L38.5772 30.1194L39.5056 29.8233L40.5796 29.4799L41.9289 29.0496C42.1964 28.9667 42.4718 28.9233 42.7511 28.9233C42.7905 28.9233 42.8259 28.9272 42.8652 28.9272C43.2901 28.943 43.6992 29.0575 44.0651 29.2628C44.2854 29.3851 44.4899 29.5391 44.6748 29.7246C44.8637 29.9141 45.0171 30.1234 45.139 30.3523C45.3397 30.7234 45.4498 31.1379 45.4656 31.5603C45.4774 31.8682 45.442 32.1762 45.3475 32.4801L44.9109 33.8579L44.5725 34.9317L44.2932 35.812L45.4734 36.187L46.6261 36.5542L49.1281 37.3476L51.6498 38.149L54.3524 39.0057L55.4932 39.3689C56.6302 39.7321 57.3933 40.7742 57.3933 41.9704C57.3933 43.1508 56.6105 44.2206 55.4932 44.5759L54.3524 44.9391L51.6498 45.7957L51.6734 45.8115ZM51.6537 36.5463L52.8457 36.1594V36.9252L51.6537 36.5463ZM47.4365 35.208L52.8457 32.4446V34.5487L49.1517 35.7528L47.4404 35.208H47.4365ZM46.2642 29.2549L52.8457 22.6504V26.2033L46.8739 30.5576C46.748 30.0957 46.5435 29.6536 46.2681 29.2509L46.2642 29.2549ZM46.8228 32.9539C46.8818 32.7683 46.9251 32.5788 46.9565 32.3893L52.8417 28.0982V30.7234L46.5002 33.9645L46.8188 32.9499L46.8228 32.9539ZM52.8417 20.487L45.1902 28.1653C44.7929 27.889 44.3522 27.6837 43.888 27.5574L52.8417 15.1892V20.487ZM42.0666 27.4626C41.8699 27.4942 41.6771 27.5416 41.4844 27.6008L40.497 27.9166L50.0368 9.12953C51.3311 9.97434 52.2831 11.2889 52.6608 12.8325L42.0705 27.4626H42.0666ZM39.2302 27.0323L38.6952 25.3151L44.2618 8.12682H46.6969C47.3853 8.12682 48.0462 8.24525 48.6639 8.45843L39.2342 27.0323H39.2302ZM37.9045 22.7925L36.8344 19.3699L38.6087 8.12682H42.6528L37.9045 22.7925ZM35.6818 16.8907C35.0602 16.1762 34.2105 15.6867 33.2585 15.509V8.14261H37.0665L35.6818 16.9065V16.8907ZM31.7321 15.509C30.7879 15.6827 29.9343 16.1762 29.3048 16.8828L27.924 8.13077H31.7321V15.509ZM28.1443 19.3264L27.0664 22.7451L22.3338 8.13077H26.3779L28.1443 19.3264ZM26.2757 25.2559L25.7328 26.981L16.3188 8.46632C16.9325 8.26104 17.5855 8.14261 18.27 8.14261H20.7248L26.2678 25.2677L26.2757 25.2559ZM24.4975 27.9245L23.4786 27.6008C23.2977 27.5455 23.1128 27.5021 22.9279 27.4705L12.3061 12.8246C12.6877 11.285 13.6437 9.97039 14.938 9.12953L24.4857 27.9324L24.4975 27.9245ZM21.0986 27.5534C20.6304 27.6797 20.1898 27.8811 19.7886 28.1574L12.1252 20.4673V15.1616L21.0986 27.5534ZM18.7146 29.243C18.4353 29.6457 18.2307 30.0839 18.1048 30.5497L12.1291 26.1915V22.6306L18.7146 29.2391V29.243ZM18.0104 32.3736C18.0419 32.567 18.0891 32.7644 18.152 32.9578L18.4667 33.9566L12.1291 30.7155V28.0864L18.0104 32.3736ZM17.5501 35.204L15.8349 35.7488L12.1291 34.5408V32.4328L17.5501 35.204ZM13.3329 36.5423L12.1291 36.9252V36.1515L13.3329 36.5423ZM57.4366 69.6753C57.4366 75.6166 52.6175 80.4525 46.6969 80.4525H18.27C12.3494 80.4525 7.53031 75.6166 7.53031 69.6753V45.2509C7.95125 45.6062 8.44693 45.8826 8.99768 46.0563L10.5909 46.5576V69.6753C10.5909 73.923 14.0371 77.3812 18.27 77.3812H46.689C50.922 77.3812 54.3681 73.923 54.3681 69.6753V46.5655L55.9732 46.0563C56.5161 45.8826 57.0078 45.6023 57.4287 45.2391V69.6753H57.4366ZM54.9268 42.7244C55.2415 42.6257 55.4618 42.3217 55.4618 41.9862C55.4618 41.6467 55.2454 41.3546 54.9228 41.2519L54.3721 41.0782L52.8417 40.5926L50.6151 39.886L47.3617 38.8517L45.9573 38.4056L43.4553 37.6121L43.0147 37.474L41.862 37.1068L42.1492 36.1949L42.2712 35.812L43.0462 33.3526L43.4474 32.0854L43.5064 31.9038C43.593 31.6274 43.5222 31.3314 43.3176 31.1261C43.113 30.9208 42.818 30.8497 42.5426 30.9366L42.3931 30.984L41.1264 31.3866L38.6755 32.1643L38.2861 32.2867L37.3262 32.5907L36.98 31.4814L36.8462 31.0511L36.0594 28.5285L35.6228 27.131L34.596 23.8465L33.2703 19.5988L33.2309 19.4725C33.1286 19.1488 32.8336 18.9317 32.4992 18.9317C32.1648 18.9317 31.8619 19.1527 31.7635 19.4685L31.7439 19.5317L30.4063 23.7755L29.3756 27.0402L28.9272 28.4574L28.1364 30.9682L27.9948 31.4143L27.629 32.5788L26.7281 32.2907L26.3425 32.1683L23.8917 31.3906L22.6249 30.9879L22.444 30.9287C22.1686 30.8418 21.8696 30.9129 21.669 31.1182C21.4644 31.3235 21.3936 31.6195 21.4802 31.8959L21.5274 32.0498L21.9286 33.3249L22.7036 35.7844L22.8256 36.1752L23.1167 37.0989L21.9758 37.4621L21.5313 37.6042L19.0293 38.3977L17.6209 38.8438L14.3675 39.8781L12.1331 40.5887L10.6027 41.0743L10.052 41.248C9.93397 41.2835 9.82382 41.3506 9.73727 41.4375C9.59171 41.5835 9.51303 41.777 9.51303 41.9862C9.51303 42.3257 9.7294 42.6218 10.052 42.7205L10.6027 42.8941L12.1331 43.3758L14.3912 44.0864L17.6642 45.1167L19.0647 45.5588L21.5785 46.3484L22.0112 46.4866L23.1246 46.8379L22.8216 47.7932L22.6997 48.1841L21.9247 50.6435L21.5234 51.9186L21.4762 52.0686C21.3897 52.3449 21.4605 52.641 21.6651 52.8463C21.8696 53.0516 22.1686 53.1226 22.44 53.0358L22.621 52.9766L23.8838 52.5739L26.3347 51.7962L26.7202 51.6738L27.6211 51.3856L27.9869 52.5463L28.1286 52.9924L28.9193 55.5031L29.3638 56.9164L30.3945 60.1811L31.7321 64.4249L31.7517 64.488C31.854 64.8117 32.1491 65.0289 32.4835 65.0289C32.8179 65.0289 33.1168 64.8078 33.2191 64.488L33.2585 64.3617L34.5881 60.1416L35.6188 56.8769L36.0634 55.4715L36.8541 52.9608L36.9918 52.5186L37.3734 51.3146L38.2349 51.587L38.5969 51.7015L41.0398 52.4713L42.2594 52.8542L42.4049 52.9016C42.6803 52.9884 42.9754 52.9134 43.1799 52.7121C43.3845 52.5068 43.4553 52.2107 43.3727 51.9344L43.3137 51.7449L42.9321 50.529L42.165 48.0775L42.0548 47.7222L41.7912 46.8813L43.0147 46.4944L43.4553 46.3563L45.9573 45.5628L47.3617 45.1167L50.6151 44.0824L52.8417 43.3758L54.3721 42.8902L54.9228 42.7165L54.9268 42.7244ZM39.482 44.6588L39.8675 45.8905L39.0099 46.1628L39.482 44.6588ZM38.9509 37.7977L39.9344 38.1096L39.4899 39.5189L38.9509 37.7977ZM39.5961 33.4868L40.0249 33.3486L41.5906 32.8512L41.0871 34.45L40.9533 34.8724L40.3986 36.6331L39.4072 36.3173L38.3923 35.9936L38.0815 35.0027L37.7865 34.0553L39.6 33.4789L39.5961 33.4868ZM36.3742 49.396L35.1428 49.0091L36.6456 48.5315L36.3742 49.396ZM32.5818 48.1999L27.747 46.676L26.2678 41.9862L27.7627 37.245L32.4874 35.7449L37.161 37.2292L38.6795 42.0849L37.216 46.7313L32.5818 48.2038V48.1999ZM28.6242 49.4552L28.3135 48.4722L30.0208 49.0091L28.6242 49.4513V49.4552ZM28.6242 34.5132L29.9382 34.9317L28.3331 35.4409L28.6242 34.5132ZM36.3191 34.525L36.5984 35.4251L35.0405 34.9277L36.3191 34.5211V34.525ZM29.9067 30.451L30.9374 27.1863L31.736 24.6479L32.4835 22.2714L33.2624 24.7585L34.0492 27.2731L35.076 30.5576L35.2333 31.0629L35.8549 33.0526L34.8753 33.3644L32.4874 34.1224L30.1113 33.3684L29.0885 33.0447L29.7376 30.984L29.9028 30.455L29.9067 30.451ZM23.8838 34.4224L23.3881 32.8512L24.9814 33.3565L25.4063 33.4907L27.1569 34.0474L26.8343 35.0659L26.5353 36.0094L25.599 36.3055L24.5801 36.6292L24.0176 34.8527L23.8799 34.4185L23.8838 34.4224ZM25.4613 39.4281L25.0443 38.1096L25.9688 37.8174L25.4613 39.4281ZM25.957 46.1155L25.0561 45.8312L25.4613 44.5482L25.957 46.1155ZM21.0828 44.5798L17.8098 43.5495L15.2881 42.756L12.8451 41.9862L15.2448 41.2243L17.7665 40.4229L21.0199 39.3886L21.5431 39.2228L23.577 38.5754L23.9035 39.6136L24.6509 41.9901L23.9035 44.3666L23.5848 45.3733L21.5864 44.7456L21.075 44.5838L21.0828 44.5798ZM25.4102 50.4816L24.9853 50.6158L23.3921 51.1211L23.8877 49.5539L24.0254 49.1197L24.5959 47.3037L25.5636 47.6077L26.5235 47.9117L26.8382 48.9065L27.1608 49.925L25.4102 50.4816ZM35.0878 53.4819L34.0571 56.7466L33.2624 59.2613L32.4913 61.7128L31.736 59.3245L30.9374 56.79L29.9067 53.5253L29.7415 52.9963L29.0924 50.9356L30.1152 50.6119L32.5858 49.8263L34.9815 50.5803L35.91 50.8724L35.249 52.9647L35.0838 53.4819H35.0878ZM40.969 49.4039L41.4686 51.0027L39.9147 50.5132L39.5253 50.3908L37.8415 49.8618L38.1366 48.9262L38.4395 47.963L39.4033 47.6551L40.3278 47.3629L40.8471 49.0249L40.9651 49.4039H40.969ZM43.9667 44.5877L43.4474 44.7535L41.3388 45.4246L41.0516 44.5088L40.2963 42.0928L41.0871 39.586L41.4057 38.5793L43.4474 39.2267L43.9667 39.3926L47.2201 40.4268L49.73 41.2243L52.1454 41.9901L49.7378 42.756L47.224 43.5534L43.9706 44.5877H43.9667ZM30.0326 39.6965C29.9579 39.1952 30.1428 38.7728 30.4417 38.3898C30.603 38.1806 30.7879 37.9951 31.0161 37.8608C31.0436 37.7424 31.079 37.6279 31.1223 37.5134C31.1971 37.3161 31.2993 37.1266 31.4174 36.941L31.4567 36.8581C31.4567 36.8581 31.4685 36.8502 31.4685 36.8581V36.8739C31.5039 37.1305 31.5236 37.4029 31.5236 37.699C31.7163 37.7148 31.8737 37.8411 31.972 38.074C31.9957 38.1253 32.0114 38.1767 32.0271 38.2319C32.1255 38.5714 32.1412 38.9188 32.1373 39.3531C32.1412 39.5741 32.1097 39.8742 31.9799 40.1545C31.8776 40.3755 31.7399 40.565 31.5393 40.7032C31.1971 40.94 30.7683 40.9006 30.4693 40.6124C30.2096 40.3597 30.0837 40.0439 30.0326 39.6926V39.6965ZM28.8485 42.8902C28.4079 42.677 28.1561 42.3059 28.0578 41.8283C28.0499 41.7809 28.046 41.7296 28.042 41.6822C28.042 41.6348 28.042 41.5875 28.042 41.5401C28.0538 41.1019 28.1364 40.6834 28.4157 40.3321C28.4236 40.3242 28.4315 40.3124 28.4393 40.3045C28.4669 40.1466 28.5102 39.9926 28.5692 39.8426C28.6439 39.6452 28.7462 39.4557 28.8642 39.2702L28.9036 39.1873C28.9036 39.1873 28.9154 39.1794 28.9154 39.1873V39.2031C28.9547 39.4912 28.9744 39.8031 28.9704 40.1505C29.0294 40.1742 29.0924 40.2058 29.1514 40.2531C29.3245 40.3913 29.4582 40.569 29.5723 40.7545C29.7415 41.0348 29.8988 41.3151 29.9736 41.6388C30.0444 41.9467 30.0326 42.2467 29.8831 42.5349C29.6785 42.9336 29.2497 43.0836 28.8485 42.8863V42.8902ZM33.0146 40.1545C32.8847 39.8742 32.8533 39.5741 32.8572 39.3531C32.8572 38.9188 32.869 38.5714 32.9673 38.2319C32.9831 38.1767 33.0028 38.1253 33.0224 38.074C33.1208 37.8411 33.2781 37.7148 33.4709 37.699C33.4709 37.399 33.4906 37.1305 33.526 36.8739V36.8581C33.526 36.8581 33.5338 36.8463 33.5417 36.8581L33.581 36.941C33.6991 37.1226 33.8013 37.3161 33.8761 37.5134C33.9194 37.6279 33.9548 37.7424 33.9823 37.8608C34.2065 37.9951 34.3914 38.1806 34.5567 38.3898C34.8556 38.7728 35.0366 39.1952 34.9658 39.6965C34.9147 40.0479 34.7888 40.3637 34.5291 40.6163C34.2301 40.9085 33.8013 40.944 33.4591 40.7071C33.2585 40.569 33.1168 40.3795 33.0185 40.1584L33.0146 40.1545ZM36.5787 40.3321C36.858 40.6874 36.9407 41.1019 36.9525 41.5401C36.9525 41.5875 36.9525 41.6348 36.9525 41.6822C36.9525 41.7296 36.9446 41.7809 36.9367 41.8283C36.8384 42.3059 36.5905 42.6731 36.146 42.8902C35.7447 43.0876 35.3199 42.9336 35.1114 42.5389C34.9619 42.2546 34.9501 41.9507 35.0209 41.6427C35.0956 41.323 35.2569 41.0387 35.4221 40.7584C35.5362 40.569 35.67 40.3953 35.8431 40.2571C35.9021 40.2097 35.9611 40.1742 36.024 40.1545C36.0162 39.8071 36.0398 39.4991 36.0791 39.207V39.1912C36.0791 39.1912 36.087 39.1794 36.0948 39.1912L36.1342 39.2741C36.2522 39.4557 36.3545 39.6492 36.4292 39.8465C36.4882 39.9965 36.5315 40.1505 36.5591 40.3084C36.5669 40.3163 36.5748 40.3242 36.5827 40.336L36.5787 40.3321ZM35.3946 44.1179C35.6936 44.7575 35.5008 45.4562 34.9147 45.8431C34.4426 46.1549 33.9194 46.2023 33.3725 46.1234C33.1444 46.0918 32.9398 46.0049 32.7392 45.8983C32.6605 45.8589 32.5818 45.8312 32.4992 45.8154C32.4166 45.8312 32.3379 45.8589 32.2592 45.8983C32.0586 46.001 31.8501 46.0878 31.6259 46.1234C31.079 46.2023 30.5558 46.151 30.0837 45.8431C29.4937 45.4562 29.3048 44.7575 29.6038 44.1179C29.7494 43.8021 29.9618 43.5416 30.2411 43.3402C30.5873 43.0955 30.8548 42.7915 31.0515 42.4125C31.2089 42.1046 31.4292 41.852 31.7281 41.6704C31.9681 41.5243 32.2356 41.4532 32.4992 41.4414C32.7628 41.4572 33.0303 41.5243 33.2703 41.6704C33.5692 41.852 33.7895 42.1046 33.9469 42.4125C34.1397 42.7876 34.4072 43.0955 34.7573 43.3402C35.0405 43.5376 35.249 43.8021 35.3946 44.1179Z" fill="url(#paint2_linear_272_2722)"/>
<path d="M46.689 2H18.27C11.5036 2 6 7.52282 6 14.3129V69.6871C6 76.4772 11.5036 82 18.27 82H46.689C53.4554 82 58.9591 76.4772 58.9591 69.6871V14.3129C58.9591 7.52282 53.4554 2 46.689 2ZM7.53031 14.3129C7.53031 8.36763 12.3455 3.53565 18.27 3.53565H46.689C52.6096 3.53565 57.4287 8.37158 57.4287 14.3129V38.7372C57.0078 38.3819 56.5161 38.1056 55.9692 37.9319L54.3681 37.4227V14.3129C54.3681 10.0651 50.922 6.60696 46.689 6.60696H18.27C14.0371 6.60696 10.5909 10.0651 10.5909 14.3129V37.4266L9.00162 37.9319C8.46266 38.1017 7.96305 38.3859 7.53031 38.7491V14.3129ZM13.3408 47.4379L12.1213 47.8367V47.055L13.3408 47.4379ZM17.5659 48.7683L12.1173 51.5554V49.4473L15.8507 48.2314L17.5659 48.7723V48.7683ZM18.7067 54.7451L12.1213 61.3536V57.7927L18.0969 53.4345C18.2228 53.8964 18.4274 54.3385 18.7067 54.7412V54.7451ZM18.1402 51.0343C18.0812 51.2277 18.034 51.4212 18.0025 51.6146L12.1213 55.9018V53.2726L18.4589 50.0316L18.1442 51.0303L18.1402 51.0343ZM12.1213 63.5208L19.7846 55.8307C20.1859 56.1071 20.6265 56.3124 21.0907 56.4347L12.1173 68.8265V63.5208H12.1213ZM22.92 56.5176C23.1088 56.4861 23.2937 56.4426 23.4786 56.3834L24.4896 56.0637L14.9419 74.8665C13.6476 74.0257 12.6917 72.715 12.3101 71.1715L22.92 56.5176ZM25.7249 57.0032L26.2678 58.7283L20.7209 75.8534H18.2661C17.5855 75.8534 16.9286 75.735 16.3149 75.5297L25.721 57.0032H25.7249ZM27.0625 61.2391L28.1404 64.6578L26.374 75.8534H22.3299L27.0625 61.2391ZM29.3009 67.1093C29.9264 67.8199 30.7761 68.3055 31.7281 68.4752V75.8495H27.9201L29.3009 67.1054V67.1093ZM33.2545 68.4673C34.1987 68.2897 35.0523 67.7923 35.6778 67.0777L37.0626 75.8495H33.2545V68.4673ZM36.8344 64.6144L37.9084 61.2075L42.6488 75.8534H38.6047L36.8305 64.6183L36.8344 64.6144ZM38.7031 58.6928L39.246 56.9756L48.6599 75.5179C48.0423 75.7271 47.3814 75.8495 46.693 75.8495H44.2578L38.7031 58.6928ZM40.4458 55.965L41.3624 56.2531C41.567 56.3163 41.7716 56.3637 41.9801 56.3992L52.6568 71.1478C52.2792 72.6913 51.3272 74.0099 50.0329 74.8507L40.4419 55.965H40.4458ZM43.7897 56.2887C44.2421 56.1623 44.6709 55.9571 45.0604 55.6847L52.8417 63.4932V68.791L43.7897 56.2887ZM46.1343 54.5951C46.4058 54.2003 46.6064 53.7701 46.7284 53.3161L52.8417 57.773V61.3259L46.1343 54.5951ZM46.8306 51.4962C46.7992 51.2988 46.752 51.1014 46.693 50.904L46.3979 49.9566L52.8417 53.2529V55.8781L46.8306 51.4962ZM47.4365 48.7683L49.1478 48.2235L52.8417 49.4276V51.5317L47.4365 48.7683ZM51.6537 47.4301L52.8457 47.0511V47.8169L51.6537 47.4301ZM51.6734 45.8115L49.1517 46.6129L46.6497 47.4064L45.497 47.7735L44.2421 48.1722L44.4939 48.9815L44.8204 50.0237L45.2374 51.362C45.3357 51.6738 45.3672 51.9936 45.3515 52.3055C45.3318 52.716 45.2256 53.1187 45.0289 53.4779C44.9069 53.7069 44.7496 53.9201 44.5607 54.1096C44.3798 54.2911 44.1752 54.4451 43.9549 54.5675C43.6009 54.7649 43.2035 54.8793 42.7905 54.903C42.7393 54.903 42.6882 54.9109 42.637 54.9109C42.3617 54.9109 42.0863 54.8675 41.8227 54.7846L40.5206 54.374L39.4741 54.0464L38.648 53.7858L38.2585 55.0215L37.8927 56.1781L37.1019 58.6889L36.3033 61.2154L35.2726 64.4801L35.0799 65.092C34.8084 65.9605 34.1082 66.6198 33.2585 66.8764C33.0106 66.9514 32.751 66.9988 32.4835 66.9988C32.2238 66.9988 31.9721 66.9553 31.7321 66.8882C30.8705 66.6395 30.1703 65.9842 29.891 65.092L29.71 64.5236L28.6793 61.2588L27.8768 58.7205L27.0861 56.2097L26.7202 55.0452L26.3425 53.853L25.4692 54.1293L24.3952 54.4688L23.0183 54.907C22.7508 54.9899 22.4755 55.0333 22.1961 55.0333C22.1647 55.0333 22.1332 55.0333 22.1017 55.0294C21.6729 55.0136 21.2638 54.903 20.8979 54.7017C20.6698 54.5793 20.4613 54.4214 20.2724 54.2319C20.0875 54.0464 19.9341 53.8411 19.8122 53.62C19.6076 53.249 19.4974 52.8344 19.4817 52.412C19.4699 52.1002 19.5053 51.7844 19.5997 51.4764L20.0285 50.1184L20.3708 49.0368L20.6619 48.113L19.5171 47.7538L18.3645 47.3906L15.8507 46.601L13.3211 45.8036L10.5909 44.943L9.45796 44.5877C8.32104 44.2285 7.55392 43.1823 7.54998 41.9862C7.54998 41.2559 7.82929 40.569 8.34464 40.0518C8.65543 39.7399 9.03702 39.507 9.45402 39.3768L10.587 39.0175L13.2936 38.1569L15.8192 37.3555L18.3212 36.5621L19.4778 36.1949L20.6462 35.8238L20.3629 34.9277L20.0207 33.846L19.5919 32.488C19.4935 32.1801 19.4581 31.8643 19.4699 31.5524C19.4856 31.13 19.5958 30.7155 19.8004 30.3444C19.9223 30.1234 20.0757 29.9181 20.2606 29.7325C20.4455 29.547 20.658 29.3891 20.8822 29.2667C21.2481 29.0654 21.6611 28.9548 22.086 28.9391C22.1175 28.9391 22.1489 28.9351 22.1804 28.9351C22.4558 28.9351 22.7312 28.9785 22.9987 29.0614L24.3795 29.4996L25.4535 29.8391L26.3268 30.1155L26.7045 28.9233L27.0703 27.7587L27.8611 25.248L28.6636 22.7096L29.6943 19.4449L29.8752 18.8724C30.1467 18 30.8587 17.3368 31.7163 17.0802C31.9602 17.0091 32.212 16.9657 32.4717 16.9657C32.7392 16.9657 32.9988 17.0091 33.2427 17.0841C34.0964 17.3368 34.7888 17.9921 35.0641 18.8764L35.2569 19.4883L36.2837 22.7728L37.0744 25.3072L37.8612 27.8298L38.2192 28.9785L38.5772 30.1194L39.5056 29.8233L40.5796 29.4799L41.9289 29.0496C42.1964 28.9667 42.4718 28.9233 42.7511 28.9233C42.7905 28.9233 42.8259 28.9272 42.8652 28.9272C43.2901 28.943 43.6992 29.0575 44.0651 29.2628C44.2854 29.3851 44.4899 29.5391 44.6748 29.7246C44.8637 29.9141 45.0171 30.1234 45.139 30.3523C45.3397 30.7234 45.4498 31.1379 45.4656 31.5603C45.4774 31.8682 45.442 32.1762 45.3475 32.4801L44.9109 33.8579L44.5725 34.9317L44.2932 35.812L45.4734 36.187L46.6261 36.5542L49.1281 37.3476L51.6498 38.149L54.3524 39.0057L55.4932 39.3689C56.6302 39.7321 57.3933 40.7742 57.3933 41.9704C57.3933 43.1508 56.6105 44.2206 55.4932 44.5759L54.3524 44.9391L51.6498 45.7957L51.6734 45.8115ZM51.6537 36.5463L52.8457 36.1594V36.9252L51.6537 36.5463ZM47.4365 35.208L52.8457 32.4446V34.5487L49.1517 35.7528L47.4404 35.208H47.4365ZM46.2642 29.2549L52.8457 22.6504V26.2033L46.8739 30.5576C46.748 30.0957 46.5435 29.6536 46.2681 29.2509L46.2642 29.2549ZM46.8228 32.9539C46.8818 32.7683 46.9251 32.5788 46.9565 32.3893L52.8417 28.0982V30.7234L46.5002 33.9645L46.8188 32.9499L46.8228 32.9539ZM52.8417 20.487L45.1902 28.1653C44.7929 27.889 44.3522 27.6837 43.888 27.5574L52.8417 15.1892V20.487ZM42.0666 27.4626C41.8699 27.4942 41.6771 27.5416 41.4844 27.6008L40.497 27.9166L50.0368 9.12953C51.3311 9.97434 52.2831 11.2889 52.6608 12.8325L42.0705 27.4626H42.0666ZM39.2302 27.0323L38.6952 25.3151L44.2618 8.12682H46.6969C47.3853 8.12682 48.0462 8.24525 48.6639 8.45843L39.2342 27.0323H39.2302ZM37.9045 22.7925L36.8344 19.3699L38.6087 8.12682H42.6528L37.9045 22.7925ZM35.6818 16.8907C35.0602 16.1762 34.2105 15.6867 33.2585 15.509V8.14261H37.0665L35.6818 16.9065V16.8907ZM31.7321 15.509C30.7879 15.6827 29.9343 16.1762 29.3048 16.8828L27.924 8.13077H31.7321V15.509ZM28.1443 19.3264L27.0664 22.7451L22.3338 8.13077H26.3779L28.1443 19.3264ZM26.2757 25.2559L25.7328 26.981L16.3188 8.46632C16.9325 8.26104 17.5855 8.14261 18.27 8.14261H20.7248L26.2678 25.2677L26.2757 25.2559ZM24.4975 27.9245L23.4786 27.6008C23.2977 27.5455 23.1128 27.5021 22.9279 27.4705L12.3061 12.8246C12.6877 11.285 13.6437 9.97039 14.938 9.12953L24.4857 27.9324L24.4975 27.9245ZM21.0986 27.5534C20.6304 27.6797 20.1898 27.8811 19.7886 28.1574L12.1252 20.4673V15.1616L21.0986 27.5534ZM18.7146 29.243C18.4353 29.6457 18.2307 30.0839 18.1048 30.5497L12.1291 26.1915V22.6306L18.7146 29.2391V29.243ZM18.0104 32.3736C18.0419 32.567 18.0891 32.7644 18.152 32.9578L18.4667 33.9566L12.1291 30.7155V28.0864L18.0104 32.3736ZM17.5501 35.204L15.8349 35.7488L12.1291 34.5408V32.4328L17.5501 35.204ZM13.3329 36.5423L12.1291 36.9252V36.1515L13.3329 36.5423ZM57.4366 69.6753C57.4366 75.6166 52.6175 80.4525 46.6969 80.4525H18.27C12.3494 80.4525 7.53031 75.6166 7.53031 69.6753V45.2509C7.95125 45.6062 8.44693 45.8826 8.99768 46.0563L10.5909 46.5576V69.6753C10.5909 73.923 14.0371 77.3812 18.27 77.3812H46.689C50.922 77.3812 54.3681 73.923 54.3681 69.6753V46.5655L55.9732 46.0563C56.5161 45.8826 57.0078 45.6023 57.4287 45.2391V69.6753H57.4366ZM54.9268 42.7244C55.2415 42.6257 55.4618 42.3217 55.4618 41.9862C55.4618 41.6467 55.2454 41.3546 54.9228 41.2519L54.3721 41.0782L52.8417 40.5926L50.6151 39.886L47.3617 38.8517L45.9573 38.4056L43.4553 37.6121L43.0147 37.474L41.862 37.1068L42.1492 36.1949L42.2712 35.812L43.0462 33.3526L43.4474 32.0854L43.5064 31.9038C43.593 31.6274 43.5222 31.3314 43.3176 31.1261C43.113 30.9208 42.818 30.8497 42.5426 30.9366L42.3931 30.984L41.1264 31.3866L38.6755 32.1643L38.2861 32.2867L37.3262 32.5907L36.98 31.4814L36.8462 31.0511L36.0594 28.5285L35.6228 27.131L34.596 23.8465L33.2703 19.5988L33.2309 19.4725C33.1286 19.1488 32.8336 18.9317 32.4992 18.9317C32.1648 18.9317 31.8619 19.1527 31.7635 19.4685L31.7439 19.5317L30.4063 23.7755L29.3756 27.0402L28.9272 28.4574L28.1364 30.9682L27.9948 31.4143L27.629 32.5788L26.7281 32.2907L26.3425 32.1683L23.8917 31.3906L22.6249 30.9879L22.444 30.9287C22.1686 30.8418 21.8696 30.9129 21.669 31.1182C21.4644 31.3235 21.3936 31.6195 21.4802 31.8959L21.5274 32.0498L21.9286 33.3249L22.7036 35.7844L22.8256 36.1752L23.1167 37.0989L21.9758 37.4621L21.5313 37.6042L19.0293 38.3977L17.6209 38.8438L14.3675 39.8781L12.1331 40.5887L10.6027 41.0743L10.052 41.248C9.93397 41.2835 9.82382 41.3506 9.73727 41.4375C9.59171 41.5835 9.51303 41.777 9.51303 41.9862C9.51303 42.3257 9.7294 42.6218 10.052 42.7205L10.6027 42.8941L12.1331 43.3758L14.3912 44.0864L17.6642 45.1167L19.0647 45.5588L21.5785 46.3484L22.0112 46.4866L23.1246 46.8379L22.8216 47.7932L22.6997 48.1841L21.9247 50.6435L21.5234 51.9186L21.4762 52.0686C21.3897 52.3449 21.4605 52.641 21.6651 52.8463C21.8696 53.0516 22.1686 53.1226 22.44 53.0358L22.621 52.9766L23.8838 52.5739L26.3347 51.7962L26.7202 51.6738L27.6211 51.3856L27.9869 52.5463L28.1286 52.9924L28.9193 55.5031L29.3638 56.9164L30.3945 60.1811L31.7321 64.4249L31.7517 64.488C31.854 64.8117 32.1491 65.0289 32.4835 65.0289C32.8179 65.0289 33.1168 64.8078 33.2191 64.488L33.2585 64.3617L34.5881 60.1416L35.6188 56.8769L36.0634 55.4715L36.8541 52.9608L36.9918 52.5186L37.3734 51.3146L38.2349 51.587L38.5969 51.7015L41.0398 52.4713L42.2594 52.8542L42.4049 52.9016C42.6803 52.9884 42.9754 52.9134 43.1799 52.7121C43.3845 52.5068 43.4553 52.2107 43.3727 51.9344L43.3137 51.7449L42.9321 50.529L42.165 48.0775L42.0548 47.7222L41.7912 46.8813L43.0147 46.4944L43.4553 46.3563L45.9573 45.5628L47.3617 45.1167L50.6151 44.0824L52.8417 43.3758L54.3721 42.8902L54.9228 42.7165L54.9268 42.7244ZM39.482 44.6588L39.8675 45.8905L39.0099 46.1628L39.482 44.6588ZM38.9509 37.7977L39.9344 38.1096L39.4899 39.5189L38.9509 37.7977ZM39.5961 33.4868L40.0249 33.3486L41.5906 32.8512L41.0871 34.45L40.9533 34.8724L40.3986 36.6331L39.4072 36.3173L38.3923 35.9936L38.0815 35.0027L37.7865 34.0553L39.6 33.4789L39.5961 33.4868ZM36.3742 49.396L35.1428 49.0091L36.6456 48.5315L36.3742 49.396ZM32.5818 48.1999L27.747 46.676L26.2678 41.9862L27.7627 37.245L32.4874 35.7449L37.161 37.2292L38.6795 42.0849L37.216 46.7313L32.5818 48.2038V48.1999ZM28.6242 49.4552L28.3135 48.4722L30.0208 49.0091L28.6242 49.4513V49.4552ZM28.6242 34.5132L29.9382 34.9317L28.3331 35.4409L28.6242 34.5132ZM36.3191 34.525L36.5984 35.4251L35.0405 34.9277L36.3191 34.5211V34.525ZM29.9067 30.451L30.9374 27.1863L31.736 24.6479L32.4835 22.2714L33.2624 24.7585L34.0492 27.2731L35.076 30.5576L35.2333 31.0629L35.8549 33.0526L34.8753 33.3644L32.4874 34.1224L30.1113 33.3684L29.0885 33.0447L29.7376 30.984L29.9028 30.455L29.9067 30.451ZM23.8838 34.4224L23.3881 32.8512L24.9814 33.3565L25.4063 33.4907L27.1569 34.0474L26.8343 35.0659L26.5353 36.0094L25.599 36.3055L24.5801 36.6292L24.0176 34.8527L23.8799 34.4185L23.8838 34.4224ZM25.4613 39.4281L25.0443 38.1096L25.9688 37.8174L25.4613 39.4281ZM25.957 46.1155L25.0561 45.8312L25.4613 44.5482L25.957 46.1155ZM21.0828 44.5798L17.8098 43.5495L15.2881 42.756L12.8451 41.9862L15.2448 41.2243L17.7665 40.4229L21.0199 39.3886L21.5431 39.2228L23.577 38.5754L23.9035 39.6136L24.6509 41.9901L23.9035 44.3666L23.5848 45.3733L21.5864 44.7456L21.075 44.5838L21.0828 44.5798ZM25.4102 50.4816L24.9853 50.6158L23.3921 51.1211L23.8877 49.5539L24.0254 49.1197L24.5959 47.3037L25.5636 47.6077L26.5235 47.9117L26.8382 48.9065L27.1608 49.925L25.4102 50.4816ZM35.0878 53.4819L34.0571 56.7466L33.2624 59.2613L32.4913 61.7128L31.736 59.3245L30.9374 56.79L29.9067 53.5253L29.7415 52.9963L29.0924 50.9356L30.1152 50.6119L32.5858 49.8263L34.9815 50.5803L35.91 50.8724L35.249 52.9647L35.0838 53.4819H35.0878ZM40.969 49.4039L41.4686 51.0027L39.9147 50.5132L39.5253 50.3908L37.8415 49.8618L38.1366 48.9262L38.4395 47.963L39.4033 47.6551L40.3278 47.3629L40.8471 49.0249L40.9651 49.4039H40.969ZM43.9667 44.5877L43.4474 44.7535L41.3388 45.4246L41.0516 44.5088L40.2963 42.0928L41.0871 39.586L41.4057 38.5793L43.4474 39.2267L43.9667 39.3926L47.2201 40.4268L49.73 41.2243L52.1454 41.9901L49.7378 42.756L47.224 43.5534L43.9706 44.5877H43.9667ZM30.0326 39.6965C29.9579 39.1952 30.1428 38.7728 30.4417 38.3898C30.603 38.1806 30.7879 37.9951 31.0161 37.8608C31.0436 37.7424 31.079 37.6279 31.1223 37.5134C31.1971 37.3161 31.2993 37.1266 31.4174 36.941L31.4567 36.8581C31.4567 36.8581 31.4685 36.8502 31.4685 36.8581V36.8739C31.5039 37.1305 31.5236 37.4029 31.5236 37.699C31.7163 37.7148 31.8737 37.8411 31.972 38.074C31.9957 38.1253 32.0114 38.1767 32.0271 38.2319C32.1255 38.5714 32.1412 38.9188 32.1373 39.3531C32.1412 39.5741 32.1097 39.8742 31.9799 40.1545C31.8776 40.3755 31.7399 40.565 31.5393 40.7032C31.1971 40.94 30.7683 40.9006 30.4693 40.6124C30.2096 40.3597 30.0837 40.0439 30.0326 39.6926V39.6965ZM28.8485 42.8902C28.4079 42.677 28.1561 42.3059 28.0578 41.8283C28.0499 41.7809 28.046 41.7296 28.042 41.6822C28.042 41.6348 28.042 41.5875 28.042 41.5401C28.0538 41.1019 28.1364 40.6834 28.4157 40.3321C28.4236 40.3242 28.4315 40.3124 28.4393 40.3045C28.4669 40.1466 28.5102 39.9926 28.5692 39.8426C28.6439 39.6452 28.7462 39.4557 28.8642 39.2702L28.9036 39.1873C28.9036 39.1873 28.9154 39.1794 28.9154 39.1873V39.2031C28.9547 39.4912 28.9744 39.8031 28.9704 40.1505C29.0294 40.1742 29.0924 40.2058 29.1514 40.2531C29.3245 40.3913 29.4582 40.569 29.5723 40.7545C29.7415 41.0348 29.8988 41.3151 29.9736 41.6388C30.0444 41.9467 30.0326 42.2467 29.8831 42.5349C29.6785 42.9336 29.2497 43.0836 28.8485 42.8863V42.8902ZM33.0146 40.1545C32.8847 39.8742 32.8533 39.5741 32.8572 39.3531C32.8572 38.9188 32.869 38.5714 32.9673 38.2319C32.9831 38.1767 33.0028 38.1253 33.0224 38.074C33.1208 37.8411 33.2781 37.7148 33.4709 37.699C33.4709 37.399 33.4906 37.1305 33.526 36.8739V36.8581C33.526 36.8581 33.5338 36.8463 33.5417 36.8581L33.581 36.941C33.6991 37.1226 33.8013 37.3161 33.8761 37.5134C33.9194 37.6279 33.9548 37.7424 33.9823 37.8608C34.2065 37.9951 34.3914 38.1806 34.5567 38.3898C34.8556 38.7728 35.0366 39.1952 34.9658 39.6965C34.9147 40.0479 34.7888 40.3637 34.5291 40.6163C34.2301 40.9085 33.8013 40.944 33.4591 40.7071C33.2585 40.569 33.1168 40.3795 33.0185 40.1584L33.0146 40.1545ZM36.5787 40.3321C36.858 40.6874 36.9407 41.1019 36.9525 41.5401C36.9525 41.5875 36.9525 41.6348 36.9525 41.6822C36.9525 41.7296 36.9446 41.7809 36.9367 41.8283C36.8384 42.3059 36.5905 42.6731 36.146 42.8902C35.7447 43.0876 35.3199 42.9336 35.1114 42.5389C34.9619 42.2546 34.9501 41.9507 35.0209 41.6427C35.0956 41.323 35.2569 41.0387 35.4221 40.7584C35.5362 40.569 35.67 40.3953 35.8431 40.2571C35.9021 40.2097 35.9611 40.1742 36.024 40.1545C36.0162 39.8071 36.0398 39.4991 36.0791 39.207V39.1912C36.0791 39.1912 36.087 39.1794 36.0948 39.1912L36.1342 39.2741C36.2522 39.4557 36.3545 39.6492 36.4292 39.8465C36.4882 39.9965 36.5315 40.1505 36.5591 40.3084C36.5669 40.3163 36.5748 40.3242 36.5827 40.336L36.5787 40.3321ZM35.3946 44.1179C35.6936 44.7575 35.5008 45.4562 34.9147 45.8431C34.4426 46.1549 33.9194 46.2023 33.3725 46.1234C33.1444 46.0918 32.9398 46.0049 32.7392 45.8983C32.6605 45.8589 32.5818 45.8312 32.4992 45.8154C32.4166 45.8312 32.3379 45.8589 32.2592 45.8983C32.0586 46.001 31.8501 46.0878 31.6259 46.1234C31.079 46.2023 30.5558 46.151 30.0837 45.8431C29.4937 45.4562 29.3048 44.7575 29.6038 44.1179C29.7494 43.8021 29.9618 43.5416 30.2411 43.3402C30.5873 43.0955 30.8548 42.7915 31.0515 42.4125C31.2089 42.1046 31.4292 41.852 31.7281 41.6704C31.9681 41.5243 32.2356 41.4532 32.4992 41.4414C32.7628 41.4572 33.0303 41.5243 33.2703 41.6704C33.5692 41.852 33.7895 42.1046 33.9469 42.4125C34.1397 42.7876 34.4072 43.0955 34.7573 43.3402C35.0405 43.5376 35.249 43.8021 35.3946 44.1179Z" fill="#2D3236"/>
<path d="M46.689 2H18.27C11.5036 2 6 7.52282 6 14.3129V69.6871C6 76.4772 11.5036 82 18.27 82H46.689C53.4554 82 58.9591 76.4772 58.9591 69.6871V14.3129C58.9591 7.52282 53.4554 2 46.689 2ZM7.53031 14.3129C7.53031 8.36763 12.3455 3.53565 18.27 3.53565H46.689C52.6096 3.53565 57.4287 8.37158 57.4287 14.3129V38.7372C57.0078 38.3819 56.5161 38.1056 55.9692 37.9319L54.3681 37.4227V14.3129C54.3681 10.0651 50.922 6.60696 46.689 6.60696H18.27C14.0371 6.60696 10.5909 10.0651 10.5909 14.3129V37.4266L9.00162 37.9319C8.46266 38.1017 7.96305 38.3859 7.53031 38.7491V14.3129ZM13.3408 47.4379L12.1213 47.8367V47.055L13.3408 47.4379ZM17.5659 48.7683L12.1173 51.5554V49.4473L15.8507 48.2314L17.5659 48.7723V48.7683ZM18.7067 54.7451L12.1213 61.3536V57.7927L18.0969 53.4345C18.2228 53.8964 18.4274 54.3385 18.7067 54.7412V54.7451ZM18.1402 51.0343C18.0812 51.2277 18.034 51.4212 18.0025 51.6146L12.1213 55.9018V53.2726L18.4589 50.0316L18.1442 51.0303L18.1402 51.0343ZM12.1213 63.5208L19.7846 55.8307C20.1859 56.1071 20.6265 56.3124 21.0907 56.4347L12.1173 68.8265V63.5208H12.1213ZM22.92 56.5176C23.1088 56.4861 23.2937 56.4426 23.4786 56.3834L24.4896 56.0637L14.9419 74.8665C13.6476 74.0257 12.6917 72.715 12.3101 71.1715L22.92 56.5176ZM25.7249 57.0032L26.2678 58.7283L20.7209 75.8534H18.2661C17.5855 75.8534 16.9286 75.735 16.3149 75.5297L25.721 57.0032H25.7249ZM27.0625 61.2391L28.1404 64.6578L26.374 75.8534H22.3299L27.0625 61.2391ZM29.3009 67.1093C29.9264 67.8199 30.7761 68.3055 31.7281 68.4752V75.8495H27.9201L29.3009 67.1054V67.1093ZM33.2545 68.4673C34.1987 68.2897 35.0523 67.7923 35.6778 67.0777L37.0626 75.8495H33.2545V68.4673ZM36.8344 64.6144L37.9084 61.2075L42.6488 75.8534H38.6047L36.8305 64.6183L36.8344 64.6144ZM38.7031 58.6928L39.246 56.9756L48.6599 75.5179C48.0423 75.7271 47.3814 75.8495 46.693 75.8495H44.2578L38.7031 58.6928ZM40.4458 55.965L41.3624 56.2531C41.567 56.3163 41.7716 56.3637 41.9801 56.3992L52.6568 71.1478C52.2792 72.6913 51.3272 74.0099 50.0329 74.8507L40.4419 55.965H40.4458ZM43.7897 56.2887C44.2421 56.1623 44.6709 55.9571 45.0604 55.6847L52.8417 63.4932V68.791L43.7897 56.2887ZM46.1343 54.5951C46.4058 54.2003 46.6064 53.7701 46.7284 53.3161L52.8417 57.773V61.3259L46.1343 54.5951ZM46.8306 51.4962C46.7992 51.2988 46.752 51.1014 46.693 50.904L46.3979 49.9566L52.8417 53.2529V55.8781L46.8306 51.4962ZM47.4365 48.7683L49.1478 48.2235L52.8417 49.4276V51.5317L47.4365 48.7683ZM51.6537 47.4301L52.8457 47.0511V47.8169L51.6537 47.4301ZM51.6734 45.8115L49.1517 46.6129L46.6497 47.4064L45.497 47.7735L44.2421 48.1722L44.4939 48.9815L44.8204 50.0237L45.2374 51.362C45.3357 51.6738 45.3672 51.9936 45.3515 52.3055C45.3318 52.716 45.2256 53.1187 45.0289 53.4779C44.9069 53.7069 44.7496 53.9201 44.5607 54.1096C44.3798 54.2911 44.1752 54.4451 43.9549 54.5675C43.6009 54.7649 43.2035 54.8793 42.7905 54.903C42.7393 54.903 42.6882 54.9109 42.637 54.9109C42.3617 54.9109 42.0863 54.8675 41.8227 54.7846L40.5206 54.374L39.4741 54.0464L38.648 53.7858L38.2585 55.0215L37.8927 56.1781L37.1019 58.6889L36.3033 61.2154L35.2726 64.4801L35.0799 65.092C34.8084 65.9605 34.1082 66.6198 33.2585 66.8764C33.0106 66.9514 32.751 66.9988 32.4835 66.9988C32.2238 66.9988 31.9721 66.9553 31.7321 66.8882C30.8705 66.6395 30.1703 65.9842 29.891 65.092L29.71 64.5236L28.6793 61.2588L27.8768 58.7205L27.0861 56.2097L26.7202 55.0452L26.3425 53.853L25.4692 54.1293L24.3952 54.4688L23.0183 54.907C22.7508 54.9899 22.4755 55.0333 22.1961 55.0333C22.1647 55.0333 22.1332 55.0333 22.1017 55.0294C21.6729 55.0136 21.2638 54.903 20.8979 54.7017C20.6698 54.5793 20.4613 54.4214 20.2724 54.2319C20.0875 54.0464 19.9341 53.8411 19.8122 53.62C19.6076 53.249 19.4974 52.8344 19.4817 52.412C19.4699 52.1002 19.5053 51.7844 19.5997 51.4764L20.0285 50.1184L20.3708 49.0368L20.6619 48.113L19.5171 47.7538L18.3645 47.3906L15.8507 46.601L13.3211 45.8036L10.5909 44.943L9.45796 44.5877C8.32104 44.2285 7.55392 43.1823 7.54998 41.9862C7.54998 41.2559 7.82929 40.569 8.34464 40.0518C8.65543 39.7399 9.03702 39.507 9.45402 39.3768L10.587 39.0175L13.2936 38.1569L15.8192 37.3555L18.3212 36.5621L19.4778 36.1949L20.6462 35.8238L20.3629 34.9277L20.0207 33.846L19.5919 32.488C19.4935 32.1801 19.4581 31.8643 19.4699 31.5524C19.4856 31.13 19.5958 30.7155 19.8004 30.3444C19.9223 30.1234 20.0757 29.9181 20.2606 29.7325C20.4455 29.547 20.658 29.3891 20.8822 29.2667C21.2481 29.0654 21.6611 28.9548 22.086 28.9391C22.1175 28.9391 22.1489 28.9351 22.1804 28.9351C22.4558 28.9351 22.7312 28.9785 22.9987 29.0614L24.3795 29.4996L25.4535 29.8391L26.3268 30.1155L26.7045 28.9233L27.0703 27.7587L27.8611 25.248L28.6636 22.7096L29.6943 19.4449L29.8752 18.8724C30.1467 18 30.8587 17.3368 31.7163 17.0802C31.9602 17.0091 32.212 16.9657 32.4717 16.9657C32.7392 16.9657 32.9988 17.0091 33.2427 17.0841C34.0964 17.3368 34.7888 17.9921 35.0641 18.8764L35.2569 19.4883L36.2837 22.7728L37.0744 25.3072L37.8612 27.8298L38.2192 28.9785L38.5772 30.1194L39.5056 29.8233L40.5796 29.4799L41.9289 29.0496C42.1964 28.9667 42.4718 28.9233 42.7511 28.9233C42.7905 28.9233 42.8259 28.9272 42.8652 28.9272C43.2901 28.943 43.6992 29.0575 44.0651 29.2628C44.2854 29.3851 44.4899 29.5391 44.6748 29.7246C44.8637 29.9141 45.0171 30.1234 45.139 30.3523C45.3397 30.7234 45.4498 31.1379 45.4656 31.5603C45.4774 31.8682 45.442 32.1762 45.3475 32.4801L44.9109 33.8579L44.5725 34.9317L44.2932 35.812L45.4734 36.187L46.6261 36.5542L49.1281 37.3476L51.6498 38.149L54.3524 39.0057L55.4932 39.3689C56.6302 39.7321 57.3933 40.7742 57.3933 41.9704C57.3933 43.1508 56.6105 44.2206 55.4932 44.5759L54.3524 44.9391L51.6498 45.7957L51.6734 45.8115ZM51.6537 36.5463L52.8457 36.1594V36.9252L51.6537 36.5463ZM47.4365 35.208L52.8457 32.4446V34.5487L49.1517 35.7528L47.4404 35.208H47.4365ZM46.2642 29.2549L52.8457 22.6504V26.2033L46.8739 30.5576C46.748 30.0957 46.5435 29.6536 46.2681 29.2509L46.2642 29.2549ZM46.8228 32.9539C46.8818 32.7683 46.9251 32.5788 46.9565 32.3893L52.8417 28.0982V30.7234L46.5002 33.9645L46.8188 32.9499L46.8228 32.9539ZM52.8417 20.487L45.1902 28.1653C44.7929 27.889 44.3522 27.6837 43.888 27.5574L52.8417 15.1892V20.487ZM42.0666 27.4626C41.8699 27.4942 41.6771 27.5416 41.4844 27.6008L40.497 27.9166L50.0368 9.12953C51.3311 9.97434 52.2831 11.2889 52.6608 12.8325L42.0705 27.4626H42.0666ZM39.2302 27.0323L38.6952 25.3151L44.2618 8.12682H46.6969C47.3853 8.12682 48.0462 8.24525 48.6639 8.45843L39.2342 27.0323H39.2302ZM37.9045 22.7925L36.8344 19.3699L38.6087 8.12682H42.6528L37.9045 22.7925ZM35.6818 16.8907C35.0602 16.1762 34.2105 15.6867 33.2585 15.509V8.14261H37.0665L35.6818 16.9065V16.8907ZM31.7321 15.509C30.7879 15.6827 29.9343 16.1762 29.3048 16.8828L27.924 8.13077H31.7321V15.509ZM28.1443 19.3264L27.0664 22.7451L22.3338 8.13077H26.3779L28.1443 19.3264ZM26.2757 25.2559L25.7328 26.981L16.3188 8.46632C16.9325 8.26104 17.5855 8.14261 18.27 8.14261H20.7248L26.2678 25.2677L26.2757 25.2559ZM24.4975 27.9245L23.4786 27.6008C23.2977 27.5455 23.1128 27.5021 22.9279 27.4705L12.3061 12.8246C12.6877 11.285 13.6437 9.97039 14.938 9.12953L24.4857 27.9324L24.4975 27.9245ZM21.0986 27.5534C20.6304 27.6797 20.1898 27.8811 19.7886 28.1574L12.1252 20.4673V15.1616L21.0986 27.5534ZM18.7146 29.243C18.4353 29.6457 18.2307 30.0839 18.1048 30.5497L12.1291 26.1915V22.6306L18.7146 29.2391V29.243ZM18.0104 32.3736C18.0419 32.567 18.0891 32.7644 18.152 32.9578L18.4667 33.9566L12.1291 30.7155V28.0864L18.0104 32.3736ZM17.5501 35.204L15.8349 35.7488L12.1291 34.5408V32.4328L17.5501 35.204ZM13.3329 36.5423L12.1291 36.9252V36.1515L13.3329 36.5423ZM57.4366 69.6753C57.4366 75.6166 52.6175 80.4525 46.6969 80.4525H18.27C12.3494 80.4525 7.53031 75.6166 7.53031 69.6753V45.2509C7.95125 45.6062 8.44693 45.8826 8.99768 46.0563L10.5909 46.5576V69.6753C10.5909 73.923 14.0371 77.3812 18.27 77.3812H46.689C50.922 77.3812 54.3681 73.923 54.3681 69.6753V46.5655L55.9732 46.0563C56.5161 45.8826 57.0078 45.6023 57.4287 45.2391V69.6753H57.4366ZM54.9268 42.7244C55.2415 42.6257 55.4618 42.3217 55.4618 41.9862C55.4618 41.6467 55.2454 41.3546 54.9228 41.2519L54.3721 41.0782L52.8417 40.5926L50.6151 39.886L47.3617 38.8517L45.9573 38.4056L43.4553 37.6121L43.0147 37.474L41.862 37.1068L42.1492 36.1949L42.2712 35.812L43.0462 33.3526L43.4474 32.0854L43.5064 31.9038C43.593 31.6274 43.5222 31.3314 43.3176 31.1261C43.113 30.9208 42.818 30.8497 42.5426 30.9366L42.3931 30.984L41.1264 31.3866L38.6755 32.1643L38.2861 32.2867L37.3262 32.5907L36.98 31.4814L36.8462 31.0511L36.0594 28.5285L35.6228 27.131L34.596 23.8465L33.2703 19.5988L33.2309 19.4725C33.1286 19.1488 32.8336 18.9317 32.4992 18.9317C32.1648 18.9317 31.8619 19.1527 31.7635 19.4685L31.7439 19.5317L30.4063 23.7755L29.3756 27.0402L28.9272 28.4574L28.1364 30.9682L27.9948 31.4143L27.629 32.5788L26.7281 32.2907L26.3425 32.1683L23.8917 31.3906L22.6249 30.9879L22.444 30.9287C22.1686 30.8418 21.8696 30.9129 21.669 31.1182C21.4644 31.3235 21.3936 31.6195 21.4802 31.8959L21.5274 32.0498L21.9286 33.3249L22.7036 35.7844L22.8256 36.1752L23.1167 37.0989L21.9758 37.4621L21.5313 37.6042L19.0293 38.3977L17.6209 38.8438L14.3675 39.8781L12.1331 40.5887L10.6027 41.0743L10.052 41.248C9.93397 41.2835 9.82382 41.3506 9.73727 41.4375C9.59171 41.5835 9.51303 41.777 9.51303 41.9862C9.51303 42.3257 9.7294 42.6218 10.052 42.7205L10.6027 42.8941L12.1331 43.3758L14.3912 44.0864L17.6642 45.1167L19.0647 45.5588L21.5785 46.3484L22.0112 46.4866L23.1246 46.8379L22.8216 47.7932L22.6997 48.1841L21.9247 50.6435L21.5234 51.9186L21.4762 52.0686C21.3897 52.3449 21.4605 52.641 21.6651 52.8463C21.8696 53.0516 22.1686 53.1226 22.44 53.0358L22.621 52.9766L23.8838 52.5739L26.3347 51.7962L26.7202 51.6738L27.6211 51.3856L27.9869 52.5463L28.1286 52.9924L28.9193 55.5031L29.3638 56.9164L30.3945 60.1811L31.7321 64.4249L31.7517 64.488C31.854 64.8117 32.1491 65.0289 32.4835 65.0289C32.8179 65.0289 33.1168 64.8078 33.2191 64.488L33.2585 64.3617L34.5881 60.1416L35.6188 56.8769L36.0634 55.4715L36.8541 52.9608L36.9918 52.5186L37.3734 51.3146L38.2349 51.587L38.5969 51.7015L41.0398 52.4713L42.2594 52.8542L42.4049 52.9016C42.6803 52.9884 42.9754 52.9134 43.1799 52.7121C43.3845 52.5068 43.4553 52.2107 43.3727 51.9344L43.3137 51.7449L42.9321 50.529L42.165 48.0775L42.0548 47.7222L41.7912 46.8813L43.0147 46.4944L43.4553 46.3563L45.9573 45.5628L47.3617 45.1167L50.6151 44.0824L52.8417 43.3758L54.3721 42.8902L54.9228 42.7165L54.9268 42.7244ZM39.482 44.6588L39.8675 45.8905L39.0099 46.1628L39.482 44.6588ZM38.9509 37.7977L39.9344 38.1096L39.4899 39.5189L38.9509 37.7977ZM39.5961 33.4868L40.0249 33.3486L41.5906 32.8512L41.0871 34.45L40.9533 34.8724L40.3986 36.6331L39.4072 36.3173L38.3923 35.9936L38.0815 35.0027L37.7865 34.0553L39.6 33.4789L39.5961 33.4868ZM36.3742 49.396L35.1428 49.0091L36.6456 48.5315L36.3742 49.396ZM32.5818 48.1999L27.747 46.676L26.2678 41.9862L27.7627 37.245L32.4874 35.7449L37.161 37.2292L38.6795 42.0849L37.216 46.7313L32.5818 48.2038V48.1999ZM28.6242 49.4552L28.3135 48.4722L30.0208 49.0091L28.6242 49.4513V49.4552ZM28.6242 34.5132L29.9382 34.9317L28.3331 35.4409L28.6242 34.5132ZM36.3191 34.525L36.5984 35.4251L35.0405 34.9277L36.3191 34.5211V34.525ZM29.9067 30.451L30.9374 27.1863L31.736 24.6479L32.4835 22.2714L33.2624 24.7585L34.0492 27.2731L35.076 30.5576L35.2333 31.0629L35.8549 33.0526L34.8753 33.3644L32.4874 34.1224L30.1113 33.3684L29.0885 33.0447L29.7376 30.984L29.9028 30.455L29.9067 30.451ZM23.8838 34.4224L23.3881 32.8512L24.9814 33.3565L25.4063 33.4907L27.1569 34.0474L26.8343 35.0659L26.5353 36.0094L25.599 36.3055L24.5801 36.6292L24.0176 34.8527L23.8799 34.4185L23.8838 34.4224ZM25.4613 39.4281L25.0443 38.1096L25.9688 37.8174L25.4613 39.4281ZM25.957 46.1155L25.0561 45.8312L25.4613 44.5482L25.957 46.1155ZM21.0828 44.5798L17.8098 43.5495L15.2881 42.756L12.8451 41.9862L15.2448 41.2243L17.7665 40.4229L21.0199 39.3886L21.5431 39.2228L23.577 38.5754L23.9035 39.6136L24.6509 41.9901L23.9035 44.3666L23.5848 45.3733L21.5864 44.7456L21.075 44.5838L21.0828 44.5798ZM25.4102 50.4816L24.9853 50.6158L23.3921 51.1211L23.8877 49.5539L24.0254 49.1197L24.5959 47.3037L25.5636 47.6077L26.5235 47.9117L26.8382 48.9065L27.1608 49.925L25.4102 50.4816ZM35.0878 53.4819L34.0571 56.7466L33.2624 59.2613L32.4913 61.7128L31.736 59.3245L30.9374 56.79L29.9067 53.5253L29.7415 52.9963L29.0924 50.9356L30.1152 50.6119L32.5858 49.8263L34.9815 50.5803L35.91 50.8724L35.249 52.9647L35.0838 53.4819H35.0878ZM40.969 49.4039L41.4686 51.0027L39.9147 50.5132L39.5253 50.3908L37.8415 49.8618L38.1366 48.9262L38.4395 47.963L39.4033 47.6551L40.3278 47.3629L40.8471 49.0249L40.9651 49.4039H40.969ZM43.9667 44.5877L43.4474 44.7535L41.3388 45.4246L41.0516 44.5088L40.2963 42.0928L41.0871 39.586L41.4057 38.5793L43.4474 39.2267L43.9667 39.3926L47.2201 40.4268L49.73 41.2243L52.1454 41.9901L49.7378 42.756L47.224 43.5534L43.9706 44.5877H43.9667ZM30.0326 39.6965C29.9579 39.1952 30.1428 38.7728 30.4417 38.3898C30.603 38.1806 30.7879 37.9951 31.0161 37.8608C31.0436 37.7424 31.079 37.6279 31.1223 37.5134C31.1971 37.3161 31.2993 37.1266 31.4174 36.941L31.4567 36.8581C31.4567 36.8581 31.4685 36.8502 31.4685 36.8581V36.8739C31.5039 37.1305 31.5236 37.4029 31.5236 37.699C31.7163 37.7148 31.8737 37.8411 31.972 38.074C31.9957 38.1253 32.0114 38.1767 32.0271 38.2319C32.1255 38.5714 32.1412 38.9188 32.1373 39.3531C32.1412 39.5741 32.1097 39.8742 31.9799 40.1545C31.8776 40.3755 31.7399 40.565 31.5393 40.7032C31.1971 40.94 30.7683 40.9006 30.4693 40.6124C30.2096 40.3597 30.0837 40.0439 30.0326 39.6926V39.6965ZM28.8485 42.8902C28.4079 42.677 28.1561 42.3059 28.0578 41.8283C28.0499 41.7809 28.046 41.7296 28.042 41.6822C28.042 41.6348 28.042 41.5875 28.042 41.5401C28.0538 41.1019 28.1364 40.6834 28.4157 40.3321C28.4236 40.3242 28.4315 40.3124 28.4393 40.3045C28.4669 40.1466 28.5102 39.9926 28.5692 39.8426C28.6439 39.6452 28.7462 39.4557 28.8642 39.2702L28.9036 39.1873C28.9036 39.1873 28.9154 39.1794 28.9154 39.1873V39.2031C28.9547 39.4912 28.9744 39.8031 28.9704 40.1505C29.0294 40.1742 29.0924 40.2058 29.1514 40.2531C29.3245 40.3913 29.4582 40.569 29.5723 40.7545C29.7415 41.0348 29.8988 41.3151 29.9736 41.6388C30.0444 41.9467 30.0326 42.2467 29.8831 42.5349C29.6785 42.9336 29.2497 43.0836 28.8485 42.8863V42.8902ZM33.0146 40.1545C32.8847 39.8742 32.8533 39.5741 32.8572 39.3531C32.8572 38.9188 32.869 38.5714 32.9673 38.2319C32.9831 38.1767 33.0028 38.1253 33.0224 38.074C33.1208 37.8411 33.2781 37.7148 33.4709 37.699C33.4709 37.399 33.4906 37.1305 33.526 36.8739V36.8581C33.526 36.8581 33.5338 36.8463 33.5417 36.8581L33.581 36.941C33.6991 37.1226 33.8013 37.3161 33.8761 37.5134C33.9194 37.6279 33.9548 37.7424 33.9823 37.8608C34.2065 37.9951 34.3914 38.1806 34.5567 38.3898C34.8556 38.7728 35.0366 39.1952 34.9658 39.6965C34.9147 40.0479 34.7888 40.3637 34.5291 40.6163C34.2301 40.9085 33.8013 40.944 33.4591 40.7071C33.2585 40.569 33.1168 40.3795 33.0185 40.1584L33.0146 40.1545ZM36.5787 40.3321C36.858 40.6874 36.9407 41.1019 36.9525 41.5401C36.9525 41.5875 36.9525 41.6348 36.9525 41.6822C36.9525 41.7296 36.9446 41.7809 36.9367 41.8283C36.8384 42.3059 36.5905 42.6731 36.146 42.8902C35.7447 43.0876 35.3199 42.9336 35.1114 42.5389C34.9619 42.2546 34.9501 41.9507 35.0209 41.6427C35.0956 41.323 35.2569 41.0387 35.4221 40.7584C35.5362 40.569 35.67 40.3953 35.8431 40.2571C35.9021 40.2097 35.9611 40.1742 36.024 40.1545C36.0162 39.8071 36.0398 39.4991 36.0791 39.207V39.1912C36.0791 39.1912 36.087 39.1794 36.0948 39.1912L36.1342 39.2741C36.2522 39.4557 36.3545 39.6492 36.4292 39.8465C36.4882 39.9965 36.5315 40.1505 36.5591 40.3084C36.5669 40.3163 36.5748 40.3242 36.5827 40.336L36.5787 40.3321ZM35.3946 44.1179C35.6936 44.7575 35.5008 45.4562 34.9147 45.8431C34.4426 46.1549 33.9194 46.2023 33.3725 46.1234C33.1444 46.0918 32.9398 46.0049 32.7392 45.8983C32.6605 45.8589 32.5818 45.8312 32.4992 45.8154C32.4166 45.8312 32.3379 45.8589 32.2592 45.8983C32.0586 46.001 31.8501 46.0878 31.6259 46.1234C31.079 46.2023 30.5558 46.151 30.0837 45.8431C29.4937 45.4562 29.3048 44.7575 29.6038 44.1179C29.7494 43.8021 29.9618 43.5416 30.2411 43.3402C30.5873 43.0955 30.8548 42.7915 31.0515 42.4125C31.2089 42.1046 31.4292 41.852 31.7281 41.6704C31.9681 41.5243 32.2356 41.4532 32.4992 41.4414C32.7628 41.4572 33.0303 41.5243 33.2703 41.6704C33.5692 41.852 33.7895 42.1046 33.9469 42.4125C34.1397 42.7876 34.4072 43.0955 34.7573 43.3402C35.0405 43.5376 35.249 43.8021 35.3946 44.1179Z" fill="url(#paint3_linear_272_2722)"/>
<path d="M46.689 2H18.27C11.5036 2 6 7.52282 6 14.3129V69.6871C6 76.4772 11.5036 82 18.27 82H46.689C53.4554 82 58.9591 76.4772 58.9591 69.6871V14.3129C58.9591 7.52282 53.4554 2 46.689 2ZM7.53031 14.3129C7.53031 8.36763 12.3455 3.53565 18.27 3.53565H46.689C52.6096 3.53565 57.4287 8.37158 57.4287 14.3129V38.7372C57.0078 38.3819 56.5161 38.1056 55.9692 37.9319L54.3681 37.4227V14.3129C54.3681 10.0651 50.922 6.60696 46.689 6.60696H18.27C14.0371 6.60696 10.5909 10.0651 10.5909 14.3129V37.4266L9.00162 37.9319C8.46266 38.1017 7.96305 38.3859 7.53031 38.7491V14.3129ZM13.3408 47.4379L12.1213 47.8367V47.055L13.3408 47.4379ZM17.5659 48.7683L12.1173 51.5554V49.4473L15.8507 48.2314L17.5659 48.7723V48.7683ZM18.7067 54.7451L12.1213 61.3536V57.7927L18.0969 53.4345C18.2228 53.8964 18.4274 54.3385 18.7067 54.7412V54.7451ZM18.1402 51.0343C18.0812 51.2277 18.034 51.4212 18.0025 51.6146L12.1213 55.9018V53.2726L18.4589 50.0316L18.1442 51.0303L18.1402 51.0343ZM12.1213 63.5208L19.7846 55.8307C20.1859 56.1071 20.6265 56.3124 21.0907 56.4347L12.1173 68.8265V63.5208H12.1213ZM22.92 56.5176C23.1088 56.4861 23.2937 56.4426 23.4786 56.3834L24.4896 56.0637L14.9419 74.8665C13.6476 74.0257 12.6917 72.715 12.3101 71.1715L22.92 56.5176ZM25.7249 57.0032L26.2678 58.7283L20.7209 75.8534H18.2661C17.5855 75.8534 16.9286 75.735 16.3149 75.5297L25.721 57.0032H25.7249ZM27.0625 61.2391L28.1404 64.6578L26.374 75.8534H22.3299L27.0625 61.2391ZM29.3009 67.1093C29.9264 67.8199 30.7761 68.3055 31.7281 68.4752V75.8495H27.9201L29.3009 67.1054V67.1093ZM33.2545 68.4673C34.1987 68.2897 35.0523 67.7923 35.6778 67.0777L37.0626 75.8495H33.2545V68.4673ZM36.8344 64.6144L37.9084 61.2075L42.6488 75.8534H38.6047L36.8305 64.6183L36.8344 64.6144ZM38.7031 58.6928L39.246 56.9756L48.6599 75.5179C48.0423 75.7271 47.3814 75.8495 46.693 75.8495H44.2578L38.7031 58.6928ZM40.4458 55.965L41.3624 56.2531C41.567 56.3163 41.7716 56.3637 41.9801 56.3992L52.6568 71.1478C52.2792 72.6913 51.3272 74.0099 50.0329 74.8507L40.4419 55.965H40.4458ZM43.7897 56.2887C44.2421 56.1623 44.6709 55.9571 45.0604 55.6847L52.8417 63.4932V68.791L43.7897 56.2887ZM46.1343 54.5951C46.4058 54.2003 46.6064 53.7701 46.7284 53.3161L52.8417 57.773V61.3259L46.1343 54.5951ZM46.8306 51.4962C46.7992 51.2988 46.752 51.1014 46.693 50.904L46.3979 49.9566L52.8417 53.2529V55.8781L46.8306 51.4962ZM47.4365 48.7683L49.1478 48.2235L52.8417 49.4276V51.5317L47.4365 48.7683ZM51.6537 47.4301L52.8457 47.0511V47.8169L51.6537 47.4301ZM51.6734 45.8115L49.1517 46.6129L46.6497 47.4064L45.497 47.7735L44.2421 48.1722L44.4939 48.9815L44.8204 50.0237L45.2374 51.362C45.3357 51.6738 45.3672 51.9936 45.3515 52.3055C45.3318 52.716 45.2256 53.1187 45.0289 53.4779C44.9069 53.7069 44.7496 53.9201 44.5607 54.1096C44.3798 54.2911 44.1752 54.4451 43.9549 54.5675C43.6009 54.7649 43.2035 54.8793 42.7905 54.903C42.7393 54.903 42.6882 54.9109 42.637 54.9109C42.3617 54.9109 42.0863 54.8675 41.8227 54.7846L40.5206 54.374L39.4741 54.0464L38.648 53.7858L38.2585 55.0215L37.8927 56.1781L37.1019 58.6889L36.3033 61.2154L35.2726 64.4801L35.0799 65.092C34.8084 65.9605 34.1082 66.6198 33.2585 66.8764C33.0106 66.9514 32.751 66.9988 32.4835 66.9988C32.2238 66.9988 31.9721 66.9553 31.7321 66.8882C30.8705 66.6395 30.1703 65.9842 29.891 65.092L29.71 64.5236L28.6793 61.2588L27.8768 58.7205L27.0861 56.2097L26.7202 55.0452L26.3425 53.853L25.4692 54.1293L24.3952 54.4688L23.0183 54.907C22.7508 54.9899 22.4755 55.0333 22.1961 55.0333C22.1647 55.0333 22.1332 55.0333 22.1017 55.0294C21.6729 55.0136 21.2638 54.903 20.8979 54.7017C20.6698 54.5793 20.4613 54.4214 20.2724 54.2319C20.0875 54.0464 19.9341 53.8411 19.8122 53.62C19.6076 53.249 19.4974 52.8344 19.4817 52.412C19.4699 52.1002 19.5053 51.7844 19.5997 51.4764L20.0285 50.1184L20.3708 49.0368L20.6619 48.113L19.5171 47.7538L18.3645 47.3906L15.8507 46.601L13.3211 45.8036L10.5909 44.943L9.45796 44.5877C8.32104 44.2285 7.55392 43.1823 7.54998 41.9862C7.54998 41.2559 7.82929 40.569 8.34464 40.0518C8.65543 39.7399 9.03702 39.507 9.45402 39.3768L10.587 39.0175L13.2936 38.1569L15.8192 37.3555L18.3212 36.5621L19.4778 36.1949L20.6462 35.8238L20.3629 34.9277L20.0207 33.846L19.5919 32.488C19.4935 32.1801 19.4581 31.8643 19.4699 31.5524C19.4856 31.13 19.5958 30.7155 19.8004 30.3444C19.9223 30.1234 20.0757 29.9181 20.2606 29.7325C20.4455 29.547 20.658 29.3891 20.8822 29.2667C21.2481 29.0654 21.6611 28.9548 22.086 28.9391C22.1175 28.9391 22.1489 28.9351 22.1804 28.9351C22.4558 28.9351 22.7312 28.9785 22.9987 29.0614L24.3795 29.4996L25.4535 29.8391L26.3268 30.1155L26.7045 28.9233L27.0703 27.7587L27.8611 25.248L28.6636 22.7096L29.6943 19.4449L29.8752 18.8724C30.1467 18 30.8587 17.3368 31.7163 17.0802C31.9602 17.0091 32.212 16.9657 32.4717 16.9657C32.7392 16.9657 32.9988 17.0091 33.2427 17.0841C34.0964 17.3368 34.7888 17.9921 35.0641 18.8764L35.2569 19.4883L36.2837 22.7728L37.0744 25.3072L37.8612 27.8298L38.2192 28.9785L38.5772 30.1194L39.5056 29.8233L40.5796 29.4799L41.9289 29.0496C42.1964 28.9667 42.4718 28.9233 42.7511 28.9233C42.7905 28.9233 42.8259 28.9272 42.8652 28.9272C43.2901 28.943 43.6992 29.0575 44.0651 29.2628C44.2854 29.3851 44.4899 29.5391 44.6748 29.7246C44.8637 29.9141 45.0171 30.1234 45.139 30.3523C45.3397 30.7234 45.4498 31.1379 45.4656 31.5603C45.4774 31.8682 45.442 32.1762 45.3475 32.4801L44.9109 33.8579L44.5725 34.9317L44.2932 35.812L45.4734 36.187L46.6261 36.5542L49.1281 37.3476L51.6498 38.149L54.3524 39.0057L55.4932 39.3689C56.6302 39.7321 57.3933 40.7742 57.3933 41.9704C57.3933 43.1508 56.6105 44.2206 55.4932 44.5759L54.3524 44.9391L51.6498 45.7957L51.6734 45.8115ZM51.6537 36.5463L52.8457 36.1594V36.9252L51.6537 36.5463ZM47.4365 35.208L52.8457 32.4446V34.5487L49.1517 35.7528L47.4404 35.208H47.4365ZM46.2642 29.2549L52.8457 22.6504V26.2033L46.8739 30.5576C46.748 30.0957 46.5435 29.6536 46.2681 29.2509L46.2642 29.2549ZM46.8228 32.9539C46.8818 32.7683 46.9251 32.5788 46.9565 32.3893L52.8417 28.0982V30.7234L46.5002 33.9645L46.8188 32.9499L46.8228 32.9539ZM52.8417 20.487L45.1902 28.1653C44.7929 27.889 44.3522 27.6837 43.888 27.5574L52.8417 15.1892V20.487ZM42.0666 27.4626C41.8699 27.4942 41.6771 27.5416 41.4844 27.6008L40.497 27.9166L50.0368 9.12953C51.3311 9.97434 52.2831 11.2889 52.6608 12.8325L42.0705 27.4626H42.0666ZM39.2302 27.0323L38.6952 25.3151L44.2618 8.12682H46.6969C47.3853 8.12682 48.0462 8.24525 48.6639 8.45843L39.2342 27.0323H39.2302ZM37.9045 22.7925L36.8344 19.3699L38.6087 8.12682H42.6528L37.9045 22.7925ZM35.6818 16.8907C35.0602 16.1762 34.2105 15.6867 33.2585 15.509V8.14261H37.0665L35.6818 16.9065V16.8907ZM31.7321 15.509C30.7879 15.6827 29.9343 16.1762 29.3048 16.8828L27.924 8.13077H31.7321V15.509ZM28.1443 19.3264L27.0664 22.7451L22.3338 8.13077H26.3779L28.1443 19.3264ZM26.2757 25.2559L25.7328 26.981L16.3188 8.46632C16.9325 8.26104 17.5855 8.14261 18.27 8.14261H20.7248L26.2678 25.2677L26.2757 25.2559ZM24.4975 27.9245L23.4786 27.6008C23.2977 27.5455 23.1128 27.5021 22.9279 27.4705L12.3061 12.8246C12.6877 11.285 13.6437 9.97039 14.938 9.12953L24.4857 27.9324L24.4975 27.9245ZM21.0986 27.5534C20.6304 27.6797 20.1898 27.8811 19.7886 28.1574L12.1252 20.4673V15.1616L21.0986 27.5534ZM18.7146 29.243C18.4353 29.6457 18.2307 30.0839 18.1048 30.5497L12.1291 26.1915V22.6306L18.7146 29.2391V29.243ZM18.0104 32.3736C18.0419 32.567 18.0891 32.7644 18.152 32.9578L18.4667 33.9566L12.1291 30.7155V28.0864L18.0104 32.3736ZM17.5501 35.204L15.8349 35.7488L12.1291 34.5408V32.4328L17.5501 35.204ZM13.3329 36.5423L12.1291 36.9252V36.1515L13.3329 36.5423ZM57.4366 69.6753C57.4366 75.6166 52.6175 80.4525 46.6969 80.4525H18.27C12.3494 80.4525 7.53031 75.6166 7.53031 69.6753V45.2509C7.95125 45.6062 8.44693 45.8826 8.99768 46.0563L10.5909 46.5576V69.6753C10.5909 73.923 14.0371 77.3812 18.27 77.3812H46.689C50.922 77.3812 54.3681 73.923 54.3681 69.6753V46.5655L55.9732 46.0563C56.5161 45.8826 57.0078 45.6023 57.4287 45.2391V69.6753H57.4366ZM54.9268 42.7244C55.2415 42.6257 55.4618 42.3217 55.4618 41.9862C55.4618 41.6467 55.2454 41.3546 54.9228 41.2519L54.3721 41.0782L52.8417 40.5926L50.6151 39.886L47.3617 38.8517L45.9573 38.4056L43.4553 37.6121L43.0147 37.474L41.862 37.1068L42.1492 36.1949L42.2712 35.812L43.0462 33.3526L43.4474 32.0854L43.5064 31.9038C43.593 31.6274 43.5222 31.3314 43.3176 31.1261C43.113 30.9208 42.818 30.8497 42.5426 30.9366L42.3931 30.984L41.1264 31.3866L38.6755 32.1643L38.2861 32.2867L37.3262 32.5907L36.98 31.4814L36.8462 31.0511L36.0594 28.5285L35.6228 27.131L34.596 23.8465L33.2703 19.5988L33.2309 19.4725C33.1286 19.1488 32.8336 18.9317 32.4992 18.9317C32.1648 18.9317 31.8619 19.1527 31.7635 19.4685L31.7439 19.5317L30.4063 23.7755L29.3756 27.0402L28.9272 28.4574L28.1364 30.9682L27.9948 31.4143L27.629 32.5788L26.7281 32.2907L26.3425 32.1683L23.8917 31.3906L22.6249 30.9879L22.444 30.9287C22.1686 30.8418 21.8696 30.9129 21.669 31.1182C21.4644 31.3235 21.3936 31.6195 21.4802 31.8959L21.5274 32.0498L21.9286 33.3249L22.7036 35.7844L22.8256 36.1752L23.1167 37.0989L21.9758 37.4621L21.5313 37.6042L19.0293 38.3977L17.6209 38.8438L14.3675 39.8781L12.1331 40.5887L10.6027 41.0743L10.052 41.248C9.93397 41.2835 9.82382 41.3506 9.73727 41.4375C9.59171 41.5835 9.51303 41.777 9.51303 41.9862C9.51303 42.3257 9.7294 42.6218 10.052 42.7205L10.6027 42.8941L12.1331 43.3758L14.3912 44.0864L17.6642 45.1167L19.0647 45.5588L21.5785 46.3484L22.0112 46.4866L23.1246 46.8379L22.8216 47.7932L22.6997 48.1841L21.9247 50.6435L21.5234 51.9186L21.4762 52.0686C21.3897 52.3449 21.4605 52.641 21.6651 52.8463C21.8696 53.0516 22.1686 53.1226 22.44 53.0358L22.621 52.9766L23.8838 52.5739L26.3347 51.7962L26.7202 51.6738L27.6211 51.3856L27.9869 52.5463L28.1286 52.9924L28.9193 55.5031L29.3638 56.9164L30.3945 60.1811L31.7321 64.4249L31.7517 64.488C31.854 64.8117 32.1491 65.0289 32.4835 65.0289C32.8179 65.0289 33.1168 64.8078 33.2191 64.488L33.2585 64.3617L34.5881 60.1416L35.6188 56.8769L36.0634 55.4715L36.8541 52.9608L36.9918 52.5186L37.3734 51.3146L38.2349 51.587L38.5969 51.7015L41.0398 52.4713L42.2594 52.8542L42.4049 52.9016C42.6803 52.9884 42.9754 52.9134 43.1799 52.7121C43.3845 52.5068 43.4553 52.2107 43.3727 51.9344L43.3137 51.7449L42.9321 50.529L42.165 48.0775L42.0548 47.7222L41.7912 46.8813L43.0147 46.4944L43.4553 46.3563L45.9573 45.5628L47.3617 45.1167L50.6151 44.0824L52.8417 43.3758L54.3721 42.8902L54.9228 42.7165L54.9268 42.7244ZM39.482 44.6588L39.8675 45.8905L39.0099 46.1628L39.482 44.6588ZM38.9509 37.7977L39.9344 38.1096L39.4899 39.5189L38.9509 37.7977ZM39.5961 33.4868L40.0249 33.3486L41.5906 32.8512L41.0871 34.45L40.9533 34.8724L40.3986 36.6331L39.4072 36.3173L38.3923 35.9936L38.0815 35.0027L37.7865 34.0553L39.6 33.4789L39.5961 33.4868ZM36.3742 49.396L35.1428 49.0091L36.6456 48.5315L36.3742 49.396ZM32.5818 48.1999L27.747 46.676L26.2678 41.9862L27.7627 37.245L32.4874 35.7449L37.161 37.2292L38.6795 42.0849L37.216 46.7313L32.5818 48.2038V48.1999ZM28.6242 49.4552L28.3135 48.4722L30.0208 49.0091L28.6242 49.4513V49.4552ZM28.6242 34.5132L29.9382 34.9317L28.3331 35.4409L28.6242 34.5132ZM36.3191 34.525L36.5984 35.4251L35.0405 34.9277L36.3191 34.5211V34.525ZM29.9067 30.451L30.9374 27.1863L31.736 24.6479L32.4835 22.2714L33.2624 24.7585L34.0492 27.2731L35.076 30.5576L35.2333 31.0629L35.8549 33.0526L34.8753 33.3644L32.4874 34.1224L30.1113 33.3684L29.0885 33.0447L29.7376 30.984L29.9028 30.455L29.9067 30.451ZM23.8838 34.4224L23.3881 32.8512L24.9814 33.3565L25.4063 33.4907L27.1569 34.0474L26.8343 35.0659L26.5353 36.0094L25.599 36.3055L24.5801 36.6292L24.0176 34.8527L23.8799 34.4185L23.8838 34.4224ZM25.4613 39.4281L25.0443 38.1096L25.9688 37.8174L25.4613 39.4281ZM25.957 46.1155L25.0561 45.8312L25.4613 44.5482L25.957 46.1155ZM21.0828 44.5798L17.8098 43.5495L15.2881 42.756L12.8451 41.9862L15.2448 41.2243L17.7665 40.4229L21.0199 39.3886L21.5431 39.2228L23.577 38.5754L23.9035 39.6136L24.6509 41.9901L23.9035 44.3666L23.5848 45.3733L21.5864 44.7456L21.075 44.5838L21.0828 44.5798ZM25.4102 50.4816L24.9853 50.6158L23.3921 51.1211L23.8877 49.5539L24.0254 49.1197L24.5959 47.3037L25.5636 47.6077L26.5235 47.9117L26.8382 48.9065L27.1608 49.925L25.4102 50.4816ZM35.0878 53.4819L34.0571 56.7466L33.2624 59.2613L32.4913 61.7128L31.736 59.3245L30.9374 56.79L29.9067 53.5253L29.7415 52.9963L29.0924 50.9356L30.1152 50.6119L32.5858 49.8263L34.9815 50.5803L35.91 50.8724L35.249 52.9647L35.0838 53.4819H35.0878ZM40.969 49.4039L41.4686 51.0027L39.9147 50.5132L39.5253 50.3908L37.8415 49.8618L38.1366 48.9262L38.4395 47.963L39.4033 47.6551L40.3278 47.3629L40.8471 49.0249L40.9651 49.4039H40.969ZM43.9667 44.5877L43.4474 44.7535L41.3388 45.4246L41.0516 44.5088L40.2963 42.0928L41.0871 39.586L41.4057 38.5793L43.4474 39.2267L43.9667 39.3926L47.2201 40.4268L49.73 41.2243L52.1454 41.9901L49.7378 42.756L47.224 43.5534L43.9706 44.5877H43.9667ZM30.0326 39.6965C29.9579 39.1952 30.1428 38.7728 30.4417 38.3898C30.603 38.1806 30.7879 37.9951 31.0161 37.8608C31.0436 37.7424 31.079 37.6279 31.1223 37.5134C31.1971 37.3161 31.2993 37.1266 31.4174 36.941L31.4567 36.8581C31.4567 36.8581 31.4685 36.8502 31.4685 36.8581V36.8739C31.5039 37.1305 31.5236 37.4029 31.5236 37.699C31.7163 37.7148 31.8737 37.8411 31.972 38.074C31.9957 38.1253 32.0114 38.1767 32.0271 38.2319C32.1255 38.5714 32.1412 38.9188 32.1373 39.3531C32.1412 39.5741 32.1097 39.8742 31.9799 40.1545C31.8776 40.3755 31.7399 40.565 31.5393 40.7032C31.1971 40.94 30.7683 40.9006 30.4693 40.6124C30.2096 40.3597 30.0837 40.0439 30.0326 39.6926V39.6965ZM28.8485 42.8902C28.4079 42.677 28.1561 42.3059 28.0578 41.8283C28.0499 41.7809 28.046 41.7296 28.042 41.6822C28.042 41.6348 28.042 41.5875 28.042 41.5401C28.0538 41.1019 28.1364 40.6834 28.4157 40.3321C28.4236 40.3242 28.4315 40.3124 28.4393 40.3045C28.4669 40.1466 28.5102 39.9926 28.5692 39.8426C28.6439 39.6452 28.7462 39.4557 28.8642 39.2702L28.9036 39.1873C28.9036 39.1873 28.9154 39.1794 28.9154 39.1873V39.2031C28.9547 39.4912 28.9744 39.8031 28.9704 40.1505C29.0294 40.1742 29.0924 40.2058 29.1514 40.2531C29.3245 40.3913 29.4582 40.569 29.5723 40.7545C29.7415 41.0348 29.8988 41.3151 29.9736 41.6388C30.0444 41.9467 30.0326 42.2467 29.8831 42.5349C29.6785 42.9336 29.2497 43.0836 28.8485 42.8863V42.8902ZM33.0146 40.1545C32.8847 39.8742 32.8533 39.5741 32.8572 39.3531C32.8572 38.9188 32.869 38.5714 32.9673 38.2319C32.9831 38.1767 33.0028 38.1253 33.0224 38.074C33.1208 37.8411 33.2781 37.7148 33.4709 37.699C33.4709 37.399 33.4906 37.1305 33.526 36.8739V36.8581C33.526 36.8581 33.5338 36.8463 33.5417 36.8581L33.581 36.941C33.6991 37.1226 33.8013 37.3161 33.8761 37.5134C33.9194 37.6279 33.9548 37.7424 33.9823 37.8608C34.2065 37.9951 34.3914 38.1806 34.5567 38.3898C34.8556 38.7728 35.0366 39.1952 34.9658 39.6965C34.9147 40.0479 34.7888 40.3637 34.5291 40.6163C34.2301 40.9085 33.8013 40.944 33.4591 40.7071C33.2585 40.569 33.1168 40.3795 33.0185 40.1584L33.0146 40.1545ZM36.5787 40.3321C36.858 40.6874 36.9407 41.1019 36.9525 41.5401C36.9525 41.5875 36.9525 41.6348 36.9525 41.6822C36.9525 41.7296 36.9446 41.7809 36.9367 41.8283C36.8384 42.3059 36.5905 42.6731 36.146 42.8902C35.7447 43.0876 35.3199 42.9336 35.1114 42.5389C34.9619 42.2546 34.9501 41.9507 35.0209 41.6427C35.0956 41.323 35.2569 41.0387 35.4221 40.7584C35.5362 40.569 35.67 40.3953 35.8431 40.2571C35.9021 40.2097 35.9611 40.1742 36.024 40.1545C36.0162 39.8071 36.0398 39.4991 36.0791 39.207V39.1912C36.0791 39.1912 36.087 39.1794 36.0948 39.1912L36.1342 39.2741C36.2522 39.4557 36.3545 39.6492 36.4292 39.8465C36.4882 39.9965 36.5315 40.1505 36.5591 40.3084C36.5669 40.3163 36.5748 40.3242 36.5827 40.336L36.5787 40.3321ZM35.3946 44.1179C35.6936 44.7575 35.5008 45.4562 34.9147 45.8431C34.4426 46.1549 33.9194 46.2023 33.3725 46.1234C33.1444 46.0918 32.9398 46.0049 32.7392 45.8983C32.6605 45.8589 32.5818 45.8312 32.4992 45.8154C32.4166 45.8312 32.3379 45.8589 32.2592 45.8983C32.0586 46.001 31.8501 46.0878 31.6259 46.1234C31.079 46.2023 30.5558 46.151 30.0837 45.8431C29.4937 45.4562 29.3048 44.7575 29.6038 44.1179C29.7494 43.8021 29.9618 43.5416 30.2411 43.3402C30.5873 43.0955 30.8548 42.7915 31.0515 42.4125C31.2089 42.1046 31.4292 41.852 31.7281 41.6704C31.9681 41.5243 32.2356 41.4532 32.4992 41.4414C32.7628 41.4572 33.0303 41.5243 33.2703 41.6704C33.5692 41.852 33.7895 42.1046 33.9469 42.4125C34.1397 42.7876 34.4072 43.0955 34.7573 43.3402C35.0405 43.5376 35.249 43.8021 35.3946 44.1179Z" fill="url(#paint4_linear_272_2722)"/>
</g>
<defs>
<filter id="filter0_d_272_2722" x="0.5" y="0.5" width="63.9551" height="90.9961" filterUnits="userSpaceOnUse" color-interpolation-filters="sRGB">
<feFlood flood-opacity="0" result="BackgroundImageFix"/>
<feColorMatrix in="SourceAlpha" type="matrix" values="0 0 0 0 0 0 0 0 0 0 0 0 0 0 0 0 0 0 127 0" result="hardAlpha"/>
<feOffset dy="4"/>
<feGaussianBlur stdDeviation="2.5"/>
<feComposite in2="hardAlpha" operator="out"/>
<feColorMatrix type="matrix" values="0 0 0 0 0.890196 0 0 0 0 0.733333 0 0 0 0 0.411765 0 0 0 0.5 0"/>
<feBlend mode="normal" in2="BackgroundImageFix" result="effect1_dropShadow_272_2722"/>
<feBlend mode="normal" in="SourceGraphic" in2="effect1_dropShadow_272_2722" result="shape"/>
</filter>
<linearGradient id="paint0_linear_272_2722" x1="32.4776" y1="2" x2="32.4776" y2="81.996" gradientUnits="userSpaceOnUse">
<stop stop-color="#2D3236"/>
<stop offset="1"/>
</linearGradient>
<linearGradient id="paint1_linear_272_2722" x1="54.229" y1="76.1064" x2="-13.2878" y2="30.6455" gradientUnits="userSpaceOnUse">
<stop stop-color="#C4954B"/>
<stop offset="0.35" stop-color="#EEC66E"/>
<stop offset="0.495" stop-color="#FFFFA0"/>
<stop offset="0.62" stop-color="#FADA82"/>
<stop offset="1" stop-color="#C4954B"/>
</linearGradient>
<linearGradient id="paint2_linear_272_2722" x1="32.4795" y1="2" x2="32.4795" y2="82" gradientUnits="userSpaceOnUse">
<stop stop-color="#2D3236"/>
<stop offset="1"/>
</linearGradient>
<linearGradient id="paint3_linear_272_2722" x1="12.5113" y1="20.8376" x2="61.7567" y2="48.4604" gradientUnits="userSpaceOnUse">
<stop offset="0.51" stop-color="#FFF9D5"/>
<stop offset="1" stop-color="#FFE897"/>
</linearGradient>
<linearGradient id="paint4_linear_272_2722" x1="14.6058" y1="3.84" x2="97.6365" y2="70.2506" gradientUnits="userSpaceOnUse">
<stop offset="0.0180635" stop-color="#DEB565"/>
<stop offset="0.315" stop-color="#EDC871"/>
<stop offset="0.870775" stop-color="#FFFFA8"/>
</linearGradient>
</defs>
</svg>
