<svg width="30" height="31" viewBox="0 0 30 31" fill="none" xmlns="http://www.w3.org/2000/svg">
<circle cx="15" cy="15.25" r="14.984" fill="url(#paint0_linear_107_1149)" stroke="#0C1729" stroke-width="0.032"/>
<g filter="url(#filter0_i_107_1149)">
<path d="M28.65 15.25C28.65 22.7887 22.5387 28.9 15 28.9C7.46131 28.9 1.35 22.7887 1.35 15.25C1.35 7.71131 7.46131 1.6 15 1.6C22.5387 1.6 28.65 7.71131 28.65 15.25Z" stroke="url(#paint1_linear_107_1149)" stroke-width="2.7"/>
</g>
<g clip-path="url(#clip0_107_1149)">
<g class="obvodka" filter="url(#filter1_i_107_1149)">
<path d="M21.0973 10.0119C20.8289 9.44048 20.4454 8.94524 19.9469 8.52619C19.4484 8.10714 18.854 7.80238 18.1829 7.57381C17.4926 7.34524 16.7448 7.25 15.9012 7.25H10.2448V14.9452H8.5V16.85H10.2448V18.5262H8.5V20.431H10.2448V23.269H12.6608V20.431H18.5088V18.5262H12.6608V16.85H15.9012C16.764 16.85 17.531 16.7357 18.2212 16.5071C18.9115 16.2786 19.4867 15.9548 19.9852 15.5548C20.4838 15.1357 20.8481 14.6405 21.1165 14.05C21.385 13.4595 21.5 12.7929 21.5 12.0881V11.9738C21.5 11.25 21.3658 10.6024 21.0973 10.031V10.0119ZM18.9882 12.2024C18.9882 12.6214 18.9307 12.9833 18.7965 13.3262C18.6622 13.669 18.4705 13.9548 18.1829 14.2024C17.8953 14.45 17.5693 14.6214 17.1858 14.7548C16.8024 14.8881 16.323 14.9452 15.767 14.9452H12.6608V9.44048H15.8053C16.3038 9.44048 16.764 9.49762 17.1667 9.6119C17.5693 9.72619 17.8953 9.89762 18.1637 10.1262C18.4322 10.3548 18.6431 10.6405 18.7773 10.9643C18.9115 11.2881 18.9882 11.669 18.9882 12.0881V12.2024Z" fill="#1D1D1B"/>
<path d="M21.0973 10.0119C20.8289 9.44048 20.4454 8.94524 19.9469 8.52619C19.4484 8.10714 18.854 7.80238 18.1829 7.57381C17.4926 7.34524 16.7448 7.25 15.9012 7.25H10.2448V14.9452H8.5V16.85H10.2448V18.5262H8.5V20.431H10.2448V23.269H12.6608V20.431H18.5088V18.5262H12.6608V16.85H15.9012C16.764 16.85 17.531 16.7357 18.2212 16.5071C18.9115 16.2786 19.4867 15.9548 19.9852 15.5548C20.4838 15.1357 20.8481 14.6405 21.1165 14.05C21.385 13.4595 21.5 12.7929 21.5 12.0881V11.9738C21.5 11.25 21.3658 10.6024 21.0973 10.031V10.0119ZM18.9882 12.2024C18.9882 12.6214 18.9307 12.9833 18.7965 13.3262C18.6622 13.669 18.4705 13.9548 18.1829 14.2024C17.8953 14.45 17.5693 14.6214 17.1858 14.7548C16.8024 14.8881 16.323 14.9452 15.767 14.9452H12.6608V9.44048H15.8053C16.3038 9.44048 16.764 9.49762 17.1667 9.6119C17.5693 9.72619 17.8953 9.89762 18.1637 10.1262C18.4322 10.3548 18.6431 10.6405 18.7773 10.9643C18.9115 11.2881 18.9882 11.669 18.9882 12.0881V12.2024Z" fill="url(#paint2_linear_107_1149)"/>
</g>
</g>
<defs>
<filter id="filter0_i_107_1149" x="-0.3" y="-0.078" width="30.3" height="30.328" filterUnits="userSpaceOnUse" color-interpolation-filters="sRGB">
<feFlood flood-opacity="0" result="BackgroundImageFix"/>
<feBlend mode="normal" in="SourceGraphic" in2="BackgroundImageFix" result="shape"/>
<feColorMatrix in="SourceAlpha" type="matrix" values="0 0 0 0 0 0 0 0 0 0 0 0 0 0 0 0 0 0 127 0" result="hardAlpha"/>
<feMorphology radius="0.128" operator="erode" in="SourceAlpha" result="effect1_innerShadow_107_1149"/>
<feOffset dx="-0.3" dy="-0.5"/>
<feGaussianBlur stdDeviation="0.1"/>
<feComposite in2="hardAlpha" operator="arithmetic" k2="-1" k3="1"/>
<feColorMatrix type="matrix" values="0 0 0 0 0.519108 0 0 0 0 0.409361 0 0 0 0 0.234232 0 0 0 1 0"/>
<feBlend mode="normal" in2="shape" result="effect1_innerShadow_107_1149"/>
</filter>
<filter id="filter1_i_107_1149" x="8.3" y="7.05" width="13.2" height="16.219" filterUnits="userSpaceOnUse" color-interpolation-filters="sRGB">
<feFlood flood-opacity="0" result="BackgroundImageFix"/>
<feBlend mode="normal" in="SourceGraphic" in2="BackgroundImageFix" result="shape"/>
<feColorMatrix in="SourceAlpha" type="matrix" values="0 0 0 0 0 0 0 0 0 0 0 0 0 0 0 0 0 0 127 0" result="hardAlpha"/>
<feOffset dx="-0.2" dy="-0.3"/>
<feGaussianBlur stdDeviation="0.1"/>
<feComposite in2="hardAlpha" operator="arithmetic" k2="-1" k3="1"/>
<feColorMatrix type="matrix" values="0 0 0 0 0.6 0 0 0 0 0.45098 0 0 0 0 0.207843 0 0 0 1 0"/>
<feBlend mode="normal" in2="shape" result="effect1_innerShadow_107_1149"/>
</filter>
<linearGradient id="paint0_linear_107_1149" x1="4.875" y1="0.939999" x2="36.2288" y2="38.8225" gradientUnits="userSpaceOnUse">
<stop offset="0.0180635" stop-color="#DEB565"/>
<stop offset="0.315" stop-color="#EDC871"/>
<stop offset="0.870775" stop-color="#FFFFA8"/>
</linearGradient>
<linearGradient id="paint1_linear_107_1149" x1="27.3225" y1="28.0413" x2="9.55621e-09" y2="0.25" gradientUnits="userSpaceOnUse">
<stop stop-color="#C4954B"/>
<stop offset="0.35" stop-color="#EEC66E"/>
<stop offset="0.495" stop-color="#FFFFA0"/>
<stop offset="0.62" stop-color="#FADA82"/>
<stop offset="1" stop-color="#C4954B"/>
</linearGradient>
<linearGradient id="paint2_linear_107_1149" x1="10.0984" y1="11.022" x2="20.8882" y2="18.4415" gradientUnits="userSpaceOnUse">
<stop offset="0.51" stop-color="#FFF9D5"/>
<stop offset="1" stop-color="#FFE897"/>
</linearGradient>
<clipPath id="clip0_107_1149">
<rect width="13" height="16" fill="white" transform="translate(8.5 7.25)"/>
</clipPath>
</defs>
</svg>
