<svg width="115" height="46" fill="none" viewBox="0 0 115 46" class="A3XbVG"><g clip-path="url(#big-logo_svg__clip0)"><path fill="url(#big-logo_svg__paint0_radial)" d="M39.62 20.792a14.64 14.64 0 0 0-1.315-6.437c-.92-2.018-2.426-3.801-4.136-5.214a20.77 20.77 0 0 0-11.357-4.372 12.6 12.6 0 0 0-4.03-2.76c-1.766-.655-3.64-1.052-5.523-1.005-2.64 0-4.517 1.088-5.207 2.009A.83.83 0 0 0 8.135 4.2c1.057.69 1.947 1.725 2.531 2.845v.083h-.083c-3.254 1.738-5.886 4.166-7.766 7.34A20.16 20.16 0 0 0 0 24.961a21.7 21.7 0 0 0 1.528 8.181c.978 2.425 2.254 4.62 4.129 6.442a19.3 19.3 0 0 0 6.607 4.188c2.647.995 5.453 1.592 8.28 1.565 3.682 0 4.677-1.503 4.747-1.587s.155-.548-.435-.506-.674.056-1.545-.056-4.37-.913-4.48-5a5.8 5.8 0 0 1 .433-2.4 6.3 6.3 0 0 1 1.396-2.11.507.507 0 0 0-.249-.865 5 5 0 0 0-1.05-.102c-1.375.055-2.307.616-3.268 1.602-.899.923-1.419 2.64-1.432 3.665-.014 1.025.074 2.066.771 3.212-1.34-.964-2.527-3.932-2.85-6.97s.82-5.977 2.43-7.56c1.635-1.573 3.755-2.5 6.024-2.472 1.314-.058 2.613.137 3.82.662 1.205.525 2.36 1.318 3.212 2.32 1.25 1.564 2.113 3.493 2.393 5.476.184 1.252.451 2.476 1.418 2.476a1.7 1.7 0 0 0 1.196-.626 4.43 4.43 0 0 0 1.012-3.258v-.469h.056c1.136-.653 2.146-1.56 2.981-2.569a11.4 11.4 0 0 0 2.494-7.408m-5.568 4.868c-.35.42-.749.853-1.188 1.179l-.092.064-.055-.092c-.666-1.095-1.614-2.154-2.542-3.038a13.3 13.3 0 0 0-9.12-3.561 12.33 12.33 0 0 0-8.933 3.6c-1.172 1.169-1.9 2.561-2.521 4.095a12.3 12.3 0 0 0-.903 4.83c.041 2.601.241 3.229.865 5.026-.276-.24-5.617-4.03-5.623-12.802a16.4 16.4 0 0 1 2.761-9.203c1.773-2.62 4.219-4.661 7.14-5.872a21 21 0 0 1 2.062-.718 11.5 11.5 0 0 0-2.641-4.399c1.54-.244 2.98-.01 4.383.672 1.404.681 2.677 1.833 3.439 3.194l.791.056c3.582.108 6.927 1.274 9.781 3.44 1.266 1.043 2.415 2.364 3.089 3.86.673 1.494.993 3.125.936 4.764a7.43 7.43 0 0 1-1.63 4.905"></path><path fill="url(#big-logo_svg__paint1_radial)" fill-rule="evenodd" d="M50.524 6.867c0 1.523 1.04 2.142 5.043 3.324 4.546 1.33 6.534 2.705 6.544 6.5 0 4.893-2.761 6.463-7.363 6.463-3.318 0-5.377-.797-6.83-1.359-.563-.218-1.034-.4-1.453-.488h-1.84l1.84-5.54h.92c.92 1.847 3.682 3.694 7.363 3.694 1.951 0 2.761-.923 2.761-1.847 0-1.228-.359-2.511-4.261-3.693s-7.362-2.29-7.362-6.906c0-3.103 2.724-6.011 7.932-6.011 2.418 0 5.012 1.098 6.43 1.7l.35.147h.92l-1.84 5.54h-.92a4.95 4.95 0 0 0-1.806-2.59c-.868-.642-2.258-.98-3.336-.965-1.887 0-3.092.794-3.092 2.03m52.071-4.016v.923L97.993 19.47a5.3 5.3 0 0 1-.92 1.847v.923h6.442v-.923a1.85 1.85 0 0 1-.92-1.847l.92-1.846h4.601l.921 1.846a1.855 1.855 0 0 1-.921 1.847v.923h6.443v-.923a5.3 5.3 0 0 1-.921-1.847l-4.601-15.696V1.928h-6.442zm.92 11.08v-.924l1.841-6.463h.92l1.84 6.463v.924zM56.579 39.783a3.41 3.41 0 0 1-2.76 1.847h-3.682V27.78c0-1.847.92-1.847.92-1.847v-.923h-6.442v.923s.92 0 .92 1.847v14.773c0 1.847-.92 1.847-.92 1.847v.923H55.66l1.84-5.54zm7.363-13.85v.924L59.34 42.553c0 1.847-.92 1.847-.92 1.847v.923h6.442V44.4a1.84 1.84 0 0 1-.92-1.847l.92-1.847h4.601l.92 1.847a1.85 1.85 0 0 1-.92 1.847v.923h6.443V44.4s-.92 0-.92-1.847l-4.602-15.696V25.01h-6.442zm.92 11.08v-.923l1.84-6.463h.92l1.841 6.463v.923zM85.109 25.01h-8.283v.923s.92 0 .92 1.847v14.773c0 1.847-.92 1.847-.92 1.847v.923h6.442V44.4s-.92 0-.92-1.847V29.627l6.57 15.336c.093.221.544.36.792.36h6.443V44.4s-.92 0-.92-1.847V27.78c0-1.847.92-1.847.92-1.847v-.923H89.71v.923s.92 0 .92 1.847v11.08zm12.884 0h6.442c5.043 0 10.565 2.031 10.565 9.787 0 7.571-5.043 10.526-10.565 10.526h-6.442V44.4s.92 0 .92-1.847V27.78c0-1.847-.92-1.847-.92-1.847zm5.522 16.62h.92c4.601 0 6.405-2.89 6.442-6.833 0-4.829-1.841-6.094-6.442-6.094h-.92zM93.391 4.697c0 1.847.92 14.773.92 14.773 0 1.847.92 1.847.92 1.847v.923H88.79v-.923s.92 0 .92-1.847l-.92-9.233h-.92L85.108 22.24h-2.761l-2.761-12.003h-.92l-.92 9.233c0 1.847.92 1.847.92 1.847v.923h-6.443v-.923s.92 0 .92-1.847c0 0 .92-12.926.92-14.773s-.92-1.846-.92-1.846v-.923h7.363l2.76 8.31h.921l2.761-8.31h7.363v.923s-.92 0-.92 1.846M69.463 19.47V4.697c0-1.846.92-1.846.92-1.846v-.923h-6.441v.923s.92 0 .92 1.846V19.47c0 1.847-.92 1.847-.92 1.847v.923h6.442v-.923s-.92 0-.92-1.847" clip-rule="evenodd"></path></g><defs><radialGradient id="big-logo_svg__paint0_radial" cx="0" cy="0" r="1" gradientTransform="matrix(-10.60621 41.86003 -36.93855 -9.35924 23.92 1)" gradientUnits="userSpaceOnUse"><stop offset="0.319" stop-color="#FEC955"></stop><stop offset="1" stop-color="#A06933"></stop></radialGradient><radialGradient id="big-logo_svg__paint1_radial" cx="0" cy="0" r="1" gradientTransform="rotate(107.447 31.527 22.14)scale(50.6293 77.4559)" gradientUnits="userSpaceOnUse"><stop offset="0.021" stop-color="#FBEAC7"></stop><stop offset="0.208" stop-color="#FCD88F"></stop><stop offset="0.573" stop-color="#F9C864"></stop><stop offset="1" stop-color="#AE6510"></stop></radialGradient><clipPath id="big-logo_svg__clip0"><path fill="#fff" d="M0 0h115v46H0z"></path></clipPath></defs></svg>