<svg xmlns="http://www.w3.org/2000/svg" width="46" height="52" viewBox="0 0 46 52" fill="none"><script xmlns=""/> <path d="M46.5098 23.3016C46.5746 20.7091 46.0471 18.1357 44.9672 15.7759C43.8873 13.4161 42.1184 11.3315 40.1112 9.67942C36.2793 6.6884 31.6361 4.90832 26.7796 4.5684C25.4287 3.1954 23.8212 2.09881 22.0476 1.34039C19.9749 0.57553 17.7751 0.11186 15.5654 0.16588C12.4648 0.16588 10.2625 1.4389 9.45225 2.51491C9.36516 2.61147 9.29845 2.72448 9.25609 2.84723C9.21372 2.96998 9.19656 3.09996 9.20563 3.22944C9.2147 3.35893 9.24982 3.48527 9.30889 3.60098C9.36796 3.71668 9.44978 3.81937 9.54949 3.90295C10.7908 4.71015 11.8357 5.92028 12.521 7.22947V7.32631H12.4238C8.60317 9.35783 5.5143 12.1974 3.30649 15.9084C1.09868 19.6194 -0.0445354 23.8626 0.0013276 28.1759C-0.0256087 31.4498 0.583371 34.698 1.79473 37.7416C2.94276 40.5767 4.4414 43.1421 6.64164 45.2736C8.86518 47.4151 11.5049 49.0812 14.3986 50.1694C17.5059 51.3325 20.7996 52.0314 24.1189 51.999C28.4403 51.999 29.6084 50.2423 29.6908 50.1438C29.7732 50.0452 29.8722 49.5034 29.1798 49.5527C28.4874 49.6019 28.3885 49.6184 27.3664 49.487C26.3444 49.3557 22.2354 48.4198 22.1077 43.642C22.0811 42.646 22.2443 41.7609 22.6159 40.8358C22.9874 39.9106 23.5448 39.0709 24.2538 38.3679C24.3332 38.2934 24.3906 38.1985 24.4195 38.0936C24.4484 37.9888 24.4478 37.878 24.4176 37.7736C24.3875 37.6691 24.329 37.5749 24.2487 37.5013C24.1683 37.4277 24.0691 37.3776 23.9621 37.3564C23.5566 37.2754 23.144 37.2357 22.7305 37.2381C21.1154 37.3013 20.0209 37.9573 18.8931 39.1105C17.8381 40.1894 17.2272 42.1972 17.2117 43.3958C17.1961 44.5943 17.2985 45.8109 18.117 47.1504C16.5442 46.0243 15.151 42.5535 14.7719 39.0014C14.3927 35.4492 15.7332 32.0132 17.6238 30.1624C19.5432 28.3231 22.0325 27.2399 24.6959 27.2728C26.2381 27.2043 27.7634 27.4331 29.1789 28.0466C30.5944 28.6601 31.9494 29.5876 32.9501 30.7583C34.4179 32.5882 35.4315 34.8426 35.7602 37.1616C35.9762 38.625 36.2895 40.0561 37.4239 40.0561C37.6958 40.036 37.9606 39.9607 38.2021 39.8348C38.4436 39.709 38.6568 39.5353 38.8284 39.3244C39.2696 38.7993 39.6018 38.1923 39.8058 37.5385C40.0098 36.8846 40.0815 36.197 40.0168 35.5154C40.0168 35.3755 40.0168 35.2248 40.0168 35.0419V34.9666H40.0816C41.4154 34.2038 42.601 33.1432 43.582 31.9634C45.5522 29.5099 46.589 26.4423 46.5098 23.3016ZM39.9736 28.9937C39.5627 29.4845 39.0949 29.9908 38.5799 30.3721L38.4719 30.4474L38.4071 30.3398C37.625 29.0593 36.5121 27.8215 35.4225 26.7879C32.5152 24.0942 28.6867 22.6052 24.7161 22.6237C22.774 22.5888 20.8447 22.9435 19.0432 23.6667C17.2416 24.3899 15.6046 25.4668 14.2296 26.8332C12.8546 28.1997 12.0005 29.8277 11.2705 31.6204C10.5404 33.4131 10.18 35.3338 10.2107 37.2681C10.2591 40.3091 10.4937 41.0431 11.2263 43.1443C10.9022 42.8645 4.63229 38.4322 4.62527 28.1759C4.60348 24.3475 5.73224 20.6001 7.86636 17.4159C9.94735 14.3535 12.8189 11.9666 16.2488 10.551C17.0401 10.2291 17.8479 9.9489 18.6689 9.71169C18.0383 7.78617 16.9783 6.02779 15.5682 4.5684C17.3773 4.2833 19.0659 4.5575 20.7137 5.35403C22.3615 6.15055 23.8563 7.49678 24.7507 9.08873L25.6798 9.15329C29.8838 9.28031 33.8116 10.6439 37.1618 13.1764C38.6477 14.3958 39.9967 15.9394 40.7873 17.6877C41.5779 19.4361 41.9538 21.3423 41.8858 23.2586C41.9584 25.3366 41.2799 27.3717 39.9736 28.9937Z" fill="#757575"/>  <script xmlns=""/></svg>