<svg width="30" height="30" viewBox="0 0 134 115" fill="none" xmlns="http://www.w3.org/2000/svg">
<path d="M98.4417 74.8371L128.421 48.9576L129.716 49.0568C131.064 49.2193 132.115 49.7901 132.869 50.7692C133.623 51.7483 134 52.8086 134 53.9502C134 54.6029 133.879 55.2226 133.637 55.8092C133.394 56.3973 132.95 56.9112 132.306 57.3512L108.535 77.9707L115.723 109.242C115.757 109.403 115.773 109.583 115.773 109.783V110.322C115.773 111.682 115.325 112.802 114.429 113.68C113.531 114.56 112.43 115 111.125 115C110.716 115 110.287 114.975 109.838 114.925C109.39 114.874 108.972 114.689 108.585 114.368L107.538 113.721L98.4417 74.8371ZM81.9736 23.9731L73.5745 4.16445L74.0212 3.07104C74.401 2.08761 74.9888 1.32992 75.7844 0.797955C76.58 0.265987 77.4288 0 78.3309 0C79.2344 0 80.117 0.265987 80.9788 0.797955C81.842 1.32849 82.4671 2.06892 82.8541 3.01928L92.0669 24.9177L81.9736 23.9731ZM28.0223 98.2107L55.2138 81.8203L82.4053 98.4263L75.2837 67.3709L99.2381 46.6673L67.7305 43.8637L55.2138 14.5335L42.6971 43.648L11.1895 46.4516L35.1439 67.3709L28.0223 98.2107ZM18.5593 100.285L25.5665 70.4721L2.47313 50.3831C1.65451 49.6312 1.03802 48.8088 0.623677 47.9159C0.207892 47.0245 0 46.1324 0 45.2396C0 43.5948 0.572605 42.0665 1.71781 40.6546C2.86446 39.2442 4.43912 38.4505 6.44179 38.2737L36.9351 35.5908L48.7224 7.4986C49.3036 6.10542 50.2042 5.06088 51.4242 4.36501C52.6443 3.6677 53.8938 3.31905 55.1728 3.31905C56.4504 3.31905 57.7107 3.6677 58.9537 4.36501C60.1953 5.06088 61.1125 6.10542 61.7052 7.4986L73.4925 35.5908L103.986 38.2737C105.988 38.4505 107.563 39.2427 108.71 40.6503C109.855 42.0578 110.428 43.5833 110.428 45.2266C110.428 46.1655 110.22 47.0713 109.804 47.944C109.39 48.8181 108.773 49.6312 107.954 50.3831L84.8611 70.4721L91.9223 100.292C92.0302 100.608 92.0841 101.118 92.0841 101.821C92.0841 103.816 91.3907 105.489 90.0038 106.837C88.6169 108.187 86.999 108.862 85.1503 108.862C84.8036 108.862 83.5562 108.486 81.4082 107.732L55.2138 91.9737L29.0193 107.732C28.4093 108.054 27.7849 108.323 27.1462 108.539C26.5074 108.754 25.8974 108.862 25.3161 108.862C23.2242 108.862 21.423 108.013 19.9124 106.315C18.4017 104.617 17.9507 102.607 18.5593 100.285Z" fill="#C1C0C0"/>
</svg>
