<svg width="36" height="32" viewBox="0 0 36 32" fill="none" xmlns="http://www.w3.org/2000/svg">
<path fill-rule="evenodd" clip-rule="evenodd" d="M14.2225 5.33245C14.2225 4.35063 15.0184 3.55469 16.0003 3.55469H33.7779C34.7596 3.55469 35.5557 4.35063 35.5557 5.33245C35.5557 6.31429 34.7596 7.11022 33.7779 7.11022H16.0003C15.0184 7.11022 14.2225 6.31428 14.2225 5.33245Z" fill="#757575"/>
<path fill-rule="evenodd" clip-rule="evenodd" d="M14.2225 16.0004C14.2225 15.0186 15.0184 14.2227 16.0003 14.2227H33.7779C34.7596 14.2227 35.5557 15.0186 35.5557 16.0004C35.5557 16.9823 34.7596 17.7782 33.7779 17.7782H16.0003C15.0184 17.7782 14.2225 16.9823 14.2225 16.0004Z" fill="#757575"/>
<path fill-rule="evenodd" clip-rule="evenodd" d="M14.2225 26.6664C14.2225 25.6846 15.0184 24.8887 16.0003 24.8887H33.7779C34.7596 24.8887 35.5557 25.6846 35.5557 26.6664C35.5557 27.6483 34.7596 28.4442 33.7779 28.4442H16.0003C15.0184 28.4442 14.2225 27.6483 14.2225 26.6664Z" fill="#757575"/>
<path d="M12.1743 0.835775C12.6947 1.66837 12.4416 2.76517 11.609 3.28554C10.2345 4.14464 8.86135 6.02075 7.76592 7.93775C7.24159 8.85533 6.82015 9.71107 6.52999 10.3376C6.41921 10.5736 6.1941 11.0953 6.09538 11.3267C5.83748 11.9709 5.22799 12.407 4.53496 12.4423C3.84174 12.4776 3.1914 12.1061 2.86953 11.4912C2.56157 10.9027 2.0634 10.3517 1.58609 9.92042C1.39955 9.74512 0.98871 9.43285 0.806596 9.29863C-0.0154249 8.76235 -0.247352 7.66127 0.288644 6.83895C0.824783 6.01641 1.9262 5.78424 2.74872 6.32038C2.99085 6.48352 3.588 6.91707 4.03971 7.34597C4.23294 6.97474 4.44653 6.58027 4.67885 6.17371C5.80564 4.20187 7.54361 1.63356 9.72459 0.270463C10.5572 -0.249907 11.654 0.00319383 12.1743 0.835775Z" fill="#757575"/>
<path d="M12.1743 20.3905C12.6947 21.2232 12.4416 22.3199 11.609 22.8402C10.2345 23.6994 8.86135 25.5755 7.76592 27.4924C7.24159 28.4101 6.82015 29.2658 6.52999 29.8923C6.41921 30.1283 6.1941 30.6501 6.09538 30.8814C5.83748 31.5257 5.22799 31.9618 4.53496 31.997C3.84174 32.0323 3.1914 31.661 2.86953 31.0458C2.56157 30.4574 2.0634 29.9065 1.58609 29.4752C1.39955 29.2999 0.98871 28.9875 0.806596 28.8533C-0.0154249 28.3172 -0.247352 27.216 0.288644 26.3936C0.824783 25.5712 1.9262 25.339 2.74872 25.875C2.99085 26.0382 3.588 26.4718 4.03971 26.9006C4.23294 26.5294 4.44653 26.1349 4.67885 25.7284C5.80564 23.7567 7.54361 21.1883 9.72459 19.8251C10.5572 19.3048 11.654 19.5579 12.1743 20.3905Z" fill="#757575"/>
</svg>
