<!-- src/assets/icons/booster.svg -->
<svg width="27" height="33" viewBox="0 0 27 33" xmlns="http://www.w3.org/2000/svg">
  <defs>
    <linearGradient id="booster-gradient" x1="0%" y1="0%" x2="100%" y2="100%">
      <stop offset="0%" stop-color="#deb565" />
      <stop offset="45.29%" stop-color="#edc871" />
      <stop offset="100%" stop-color="#ffffa8" />
    </linearGradient>
  </defs>
  <path d="M2.31406 32.8448C1.75214 33.0728 1.22599 33.0159 0.735592 32.674C0.245198 32.3317 0 31.8599 0 31.2584V23.328C0 22.7577 0.132783 22.2162 0.398348 21.7033C0.663603 21.1901 1.03676 20.7782 1.51783 20.4675L3.65977 19.0411C3.87745 21.4139 4.18484 23.4701 4.58194 25.2096C4.97904 26.9491 5.63083 28.9289 6.5373 31.1491L2.31406 32.8448ZM9.7628 30.21C9.36352 30.21 9.02628 30.0772 8.75107 29.8116C8.47587 29.546 8.26659 29.2264 8.12323 28.8526C7.36727 26.7977 6.80209 24.8992 6.42768 23.1572C6.05359 21.4152 5.86654 19.4305 5.86654 17.203C5.86654 13.901 6.41058 10.8008 7.49865 7.90248C8.58704 5.00448 10.1683 2.53165 12.2425 0.483998C12.4051 0.306737 12.6005 0.181677 12.8288 0.108816C13.0573 0.0362718 13.284 0 13.5089 0C13.7337 0 13.9604 0.0362718 14.1889 0.108816C14.4172 0.181677 14.6126 0.306737 14.7753 0.483998C16.8494 2.53165 18.4307 5.00448 19.5191 7.90248C20.6071 10.8008 21.1512 13.901 21.1512 17.203C21.1512 19.462 20.9671 21.4515 20.5989 23.1714C20.2304 24.8917 19.6623 26.7854 18.8945 28.8526C18.7511 29.2264 18.5419 29.546 18.2667 29.8116C17.9914 30.0772 17.6542 30.21 17.2549 30.21H9.7628ZM13.5089 17.6179C14.4153 17.6179 15.1862 17.2959 15.8215 16.6518C16.4565 16.0075 16.774 15.2256 16.774 14.3061C16.774 13.3867 16.4565 12.6048 15.8215 11.9604C15.1862 11.3163 14.4153 10.9943 13.5089 10.9943C12.6024 10.9943 11.8315 11.3163 11.1962 11.9604C10.5612 12.6048 10.2437 13.3867 10.2437 14.3061C10.2437 15.2256 10.5612 16.0075 11.1962 16.6518C11.8315 17.2959 12.6024 17.6179 13.5089 17.6179ZM24.6855 32.8632L20.4627 31.1671C21.3692 28.9472 22.021 26.9644 22.4181 25.2186C22.8152 23.4731 23.1226 21.4139 23.3402 19.0411L25.4822 20.4855C25.9629 20.7962 26.3361 21.2081 26.6017 21.7213C26.8672 22.2345 27 22.7762 27 23.3465V31.2764C27 31.8782 26.7548 32.35 26.2644 32.6919C25.774 33.0342 25.2477 33.0913 24.6855 32.8632Z" fill="url(#booster-gradient)"/>
</svg>
