<svg width="40" height="40" viewBox="0 0 40 40" fill="none" xmlns="http://www.w3.org/2000/svg">
<circle cx="20" cy="20" r="19.984" fill="url(#paint0_linear_51_872)" stroke="#0C1729" stroke-width="0.032"/>
<g filter="url(#filter0_i_51_872)">
<path d="M38.65 20C38.65 30.3001 30.3001 38.65 20 38.65C9.69989 38.65 1.35 30.3001 1.35 20C1.35 9.69989 9.69989 1.35 20 1.35C30.3001 1.35 38.65 9.69989 38.65 20Z" stroke="url(#paint1_linear_51_872)" stroke-width="2.7"/>
</g>
<g filter="url(#filter1_i_51_872)">
<path d="M32.1978 18.561C32.2317 17.2187 31.9551 15.8863 31.3886 14.6645C30.8221 13.4427 29.8942 12.3633 28.8413 11.508C26.8312 9.95934 24.3956 9.03768 21.8481 8.86168C21.1394 8.15079 20.2962 7.58302 19.3658 7.19034C18.2786 6.79432 17.1247 6.55425 15.9656 6.58222C14.3391 6.58222 13.1839 7.24135 12.7588 7.79846C12.7131 7.84846 12.6781 7.90697 12.6559 7.97052C12.6337 8.03408 12.6247 8.10138 12.6295 8.16842C12.6342 8.23546 12.6526 8.30088 12.6836 8.36078C12.7146 8.42069 12.7575 8.47386 12.8098 8.51714C13.461 8.93507 14.0091 9.56163 14.3686 10.2395V10.2896H14.3176C12.3134 11.3415 10.6931 12.8117 9.53499 14.7331C8.37686 16.6545 7.77718 18.8515 7.80123 21.0847C7.7871 22.7798 8.10655 24.4616 8.74198 26.0375C9.3442 27.5054 10.1303 28.8337 11.2845 29.9373C12.4509 31.0461 13.8356 31.9087 15.3535 32.4721C16.9835 33.0744 18.7112 33.4362 20.4524 33.4195C22.7192 33.4195 23.3319 32.5099 23.3752 32.4589C23.4184 32.4079 23.4703 32.1273 23.1071 32.1528C22.7439 32.1783 22.692 32.1868 22.1559 32.1188C21.6198 32.0508 19.4644 31.5663 19.3974 29.0925C19.3834 28.5768 19.469 28.1185 19.6639 27.6395C19.8588 27.1606 20.1512 26.7257 20.5231 26.3618C20.5648 26.3232 20.5949 26.2741 20.6101 26.2198C20.6252 26.1655 20.6249 26.1082 20.6091 26.054C20.5933 25.9999 20.5626 25.9512 20.5204 25.9131C20.4783 25.875 20.4263 25.849 20.3701 25.8381C20.1574 25.7961 19.941 25.7756 19.724 25.7768C18.8769 25.8095 18.3027 26.1492 17.7111 26.7463C17.1577 27.3049 16.8373 28.3444 16.8291 28.965C16.8209 29.5856 16.8746 30.2155 17.304 30.909C16.479 30.326 15.7482 28.5289 15.5493 26.6898C15.3504 24.8506 16.0535 23.0715 17.0453 22.1133C18.0521 21.161 19.3579 20.6001 20.755 20.6171C21.564 20.5817 22.3641 20.7001 23.1067 21.0178C23.8492 21.3355 24.5599 21.8157 25.0849 22.4218C25.8548 23.3693 26.3865 24.5365 26.5589 25.7372C26.6723 26.4949 26.8366 27.2359 27.4317 27.2359C27.5743 27.2254 27.7132 27.1864 27.8399 27.1213C27.9666 27.0561 28.0784 26.9662 28.1684 26.857C28.3998 26.5852 28.5741 26.2709 28.6811 25.9323C28.7881 25.5938 28.8257 25.2378 28.7918 24.8848C28.7918 24.8124 28.7918 24.7344 28.7918 24.6397V24.6007H28.8258C29.5255 24.2058 30.1474 23.6566 30.662 23.0458C31.6954 21.7755 32.2393 20.1871 32.1978 18.561ZM28.7691 21.5082C28.5536 21.7623 28.3082 22.0244 28.0381 22.2218L27.9814 22.2608L27.9474 22.2051C27.5372 21.5422 26.9534 20.9012 26.3818 20.3661C24.8568 18.9714 22.8485 18.2004 20.7656 18.21C19.7469 18.192 18.7349 18.3756 17.7898 18.7501C16.8448 19.1245 15.9861 19.6821 15.2648 20.3896C14.5436 21.097 14.0956 21.94 13.7126 22.8682C13.3296 23.7964 13.1406 24.7908 13.1567 25.7924C13.1821 27.3669 13.3051 27.7469 13.6894 28.8348C13.5194 28.69 10.2305 26.3951 10.2268 21.0847C10.2153 19.1025 10.8074 17.1623 11.9269 15.5136C13.0185 13.928 14.5248 12.6922 16.324 11.9592C16.7391 11.7926 17.1629 11.6475 17.5935 11.5247C17.2627 10.5277 16.7067 9.6173 15.967 8.86168C16.916 8.71407 17.8017 8.85604 18.6661 9.26845C19.5305 9.68086 20.3146 10.3779 20.7838 11.2021L21.2712 11.2356C23.4764 11.3013 25.5368 12.0073 27.2942 13.3186C28.0736 13.9499 28.7812 14.7491 29.1959 15.6544C29.6107 16.5596 29.8078 17.5466 29.7722 18.5387C29.8103 19.6147 29.4544 20.6683 28.7691 21.5082Z" fill="url(#paint2_linear_51_872)"/>
</g>
<defs>
<filter id="filter0_i_51_872" x="-0.3" y="-0.328" width="40.3" height="40.328" filterUnits="userSpaceOnUse" color-interpolation-filters="sRGB">
<feFlood flood-opacity="0" result="BackgroundImageFix"/>
<feBlend mode="normal" in="SourceGraphic" in2="BackgroundImageFix" result="shape"/>
<feColorMatrix in="SourceAlpha" type="matrix" values="0 0 0 0 0 0 0 0 0 0 0 0 0 0 0 0 0 0 127 0" result="hardAlpha"/>
<feMorphology radius="0.128" operator="erode" in="SourceAlpha" result="effect1_innerShadow_51_872"/>
<feOffset dx="-0.3" dy="-0.5"/>
<feGaussianBlur stdDeviation="0.1"/>
<feComposite in2="hardAlpha" operator="arithmetic" k2="-1" k3="1"/>
<feColorMatrix type="matrix" values="0 0 0 0 0.519108 0 0 0 0 0.409361 0 0 0 0 0.234232 0 0 0 1 0"/>
<feBlend mode="normal" in2="shape" result="effect1_innerShadow_51_872"/>
</filter>
<filter id="filter1_i_51_872" x="4.6179" y="4.61741" width="30.0226" height="30.0226" filterUnits="userSpaceOnUse" color-interpolation-filters="sRGB">
<feFlood flood-opacity="0" result="BackgroundImageFix"/>
<feBlend mode="normal" in="SourceGraphic" in2="BackgroundImageFix" result="shape"/>
<feColorMatrix in="SourceAlpha" type="matrix" values="0 0 0 0 0 0 0 0 0 0 0 0 0 0 0 0 0 0 127 0" result="hardAlpha"/>
<feOffset dx="-0.742574" dy="-1.11386"/>
<feGaussianBlur stdDeviation="0.371287"/>
<feComposite in2="hardAlpha" operator="arithmetic" k2="-1" k3="1"/>
<feColorMatrix type="matrix" values="0 0 0 0 0.6 0 0 0 0 0.45098 0 0 0 0 0.207843 0 0 0 1 0"/>
<feBlend mode="normal" in2="shape" result="effect1_innerShadow_51_872"/>
</filter>
<linearGradient id="paint0_linear_51_872" x1="6.5" y1="0.919999" x2="48.3051" y2="51.43" gradientUnits="userSpaceOnUse">
<stop offset="0.0180635" stop-color="#DEB565"/>
<stop offset="0.315" stop-color="#EDC871"/>
<stop offset="0.870775" stop-color="#FFFFA8"/>
</linearGradient>
<linearGradient id="paint1_linear_51_872" x1="36.4301" y1="37.055" x2="1.27416e-08" y2="-1.25267e-08" gradientUnits="userSpaceOnUse">
<stop stop-color="#C4954B"/>
<stop offset="0.35" stop-color="#EEC66E"/>
<stop offset="0.495" stop-color="#FFFFA0"/>
<stop offset="0.62" stop-color="#FADA82"/>
<stop offset="1" stop-color="#C4954B"/>
</linearGradient>
<linearGradient id="paint2_linear_51_872" x1="10.8005" y1="12.9" x2="29.5205" y2="27.32" gradientUnits="userSpaceOnUse">
<stop offset="0.51" stop-color="#FFF9D5"/>
<stop offset="1" stop-color="#FFE897"/>
</linearGradient>
</defs>
</svg>
