<svg width="40" height="40" viewBox="0 0 89 90" fill="none" xmlns="http://www.w3.org/2000/svg">
<path d="M44.5 90C69.0767 90 89 70.1145 89 45.5844C89 21.0544 69.0767 1.16882 44.5 1.16882C19.9233 1.16882 0 21.0544 0 45.5844C0 70.1145 19.9233 90 44.5 90Z" fill="#AD713A"/>
<path d="M44.5 88.8312C69.0767 88.8312 89 68.9456 89 44.4156C89 19.8855 69.0767 0 44.5 0C19.9233 0 0 19.8855 0 44.4156C0 68.9456 19.9233 88.8312 44.5 88.8312Z" fill="url(#paint0_linear_238_3490)"/>
<path d="M44.5 82.8935C23.2337 82.8935 5.94897 65.6416 5.94897 44.4156C5.94897 23.1896 23.2806 5.98441 44.5 5.98441C65.7195 5.98441 83.0511 23.2364 83.0511 44.4623C83.0511 65.6883 65.7663 82.9402 44.5 82.9402V82.8935Z" fill="#AD713A"/>
<path d="M44.5 82.2389C23.6085 82.2389 6.65161 65.2675 6.65161 44.4156C6.65161 23.5636 23.6085 6.63895 44.5 6.63895C65.3916 6.63895 82.3484 23.6104 82.3484 44.4156C82.3484 65.2208 65.3448 82.2389 44.5 82.2389Z" fill="url(#paint1_linear_238_3490)"/>
<path d="M45.5306 74.2909C41.6427 74.2909 37.989 73.6364 34.6164 72.374C31.2906 71.1117 28.3395 69.2416 25.9038 66.8572C23.4211 64.426 21.5006 61.574 20.189 58.3013C18.8306 54.9818 18.1748 51.3818 18.1748 47.5481C18.1748 42.1247 19.7674 36.8883 22.7653 32.4468C25.0606 29.0338 28.1522 26.2286 31.759 24.2182C31.0095 22.9091 29.8853 21.9273 28.9953 21.3195C28.2459 20.7585 28.1053 19.7299 28.7143 18.8883C29.698 17.4857 32.6022 16.0364 36.209 16.0364C38.7853 16.0364 41.1274 16.5039 43.4695 17.3922C45.8585 18.3273 47.6853 19.9637 48.8564 21.0857C54.5243 21.5065 59.6769 23.5169 63.5648 26.6961C68.2022 30.5299 70.638 35.8598 70.638 42.1714C70.638 45.9585 69.4669 49.3714 67.2185 52.0831C66.188 53.3455 64.8764 54.4208 63.518 55.2624V55.4494C63.7053 57.5533 62.8153 59.2364 61.9722 60.1247C61.3632 60.7792 60.6606 61.1533 60.0048 61.1533C58.0843 61.1533 57.7564 58.8156 57.5222 57.413C57.288 55.9636 56.6322 53.1117 54.6648 50.774C52.6506 48.3429 49.7932 47.1273 46.2332 47.1273C43.3759 47.1273 40.7527 48.1559 38.8322 50.026C36.9585 51.8494 35.7874 54.8883 35.7874 57.9273C35.7874 60.9662 36.3964 63.1637 37.1459 64.7533C37.1459 64.6598 37.1459 64.5662 37.1459 64.5195C37.1459 60.7792 39.8627 56.7585 43.8911 56.7585C44.4532 56.7585 44.9685 56.8052 45.3901 56.8987C45.8585 56.9922 46.2801 57.3662 46.3738 57.8338C46.5143 58.3013 46.3738 58.8156 45.999 59.1429C44.6406 60.4052 43.8443 62.4156 43.8443 64.5195C43.8443 67.9325 46.4674 70.3169 50.2148 70.3169C50.4959 70.3169 50.7301 70.3169 50.9643 70.3169C51.5264 70.3169 51.9011 70.5974 52.0885 70.9714C52.2759 71.3922 52.1822 71.8598 51.8543 72.187C50.8706 73.1688 48.9501 74.3377 45.5306 74.3377V74.2909ZM37.3332 22.0675C38.4106 23.3766 39.3006 25.013 40.0032 26.9299L40.2374 27.5844L39.5348 27.7714C38.3638 28.0987 37.099 28.613 36.9585 28.6598C33.3048 30.2026 30.1664 32.7273 27.9648 35.9533C25.6695 39.3195 24.4985 43.2935 24.4985 47.4546C24.4985 50.4468 25.0138 53.2987 26.0443 55.8234C26.9343 58.0208 28.199 60.0312 29.7916 61.6675C29.4638 60.3117 29.2764 58.9091 29.2764 57.4598C29.2764 52.8312 31.0564 48.5299 34.2416 45.4442C37.3801 42.4052 41.5959 40.7221 46.0927 40.7221C50.5895 40.7221 55.2269 42.4987 58.3185 45.4909C59.5364 46.6598 60.4732 47.7818 61.2227 48.9507C61.5974 48.6234 61.9253 48.2961 62.1595 47.9688C63.4711 46.426 64.1269 44.4624 64.1269 42.1247C64.1269 37.7299 62.5343 34.1766 59.349 31.5585C56.3043 29.0338 52.0417 27.5377 46.9359 27.1636L45.5306 27.0701L45.3432 26.7429C45.3432 26.7429 42.8606 22.0208 37.4738 22.0208C37.3801 22.0208 37.3332 22.0208 37.2395 22.0208L37.3332 22.0675Z" fill="#9A662C"/>
<path d="M45.5306 72.9351C41.6427 72.9351 37.989 72.2805 34.6164 71.0182C31.2906 69.7558 28.3395 67.8857 25.9038 65.5013C23.4211 63.0701 21.5006 60.2182 20.189 56.9454C18.8306 53.626 18.1748 50.026 18.1748 46.1922C18.1748 40.7688 19.7674 35.5325 22.7653 31.0909C25.0606 27.6779 28.1522 24.8727 31.759 22.8623C31.0095 21.5532 29.8853 20.5714 28.9953 19.9636C28.2459 19.4026 28.1053 18.374 28.7143 17.5325C29.698 16.1299 32.6022 14.6805 36.209 14.6805C38.7853 14.6805 41.1274 15.148 43.4695 16.0364C45.8585 16.9714 47.6853 18.6078 48.8564 19.7299C54.5243 20.1506 59.6769 22.161 63.5648 25.3403C68.2022 29.174 70.638 34.5039 70.638 40.8156C70.638 44.6026 69.4669 48.0156 67.2185 50.7273C66.188 51.9896 64.8764 53.0649 63.518 53.9065V54.0935C63.7053 56.1974 62.8153 57.8805 61.9722 58.7688C61.3632 59.4234 60.6606 59.7974 60.0048 59.7974C58.0843 59.7974 57.7564 57.4597 57.5222 56.0571C57.288 54.6078 56.6322 51.7558 54.6648 49.4182C52.6506 46.987 49.7932 45.7714 46.2332 45.7714C43.3759 45.7714 40.7527 46.8 38.8322 48.6701C36.9585 50.4935 35.7874 53.5325 35.7874 56.5714C35.7874 59.6104 36.3964 61.8078 37.1459 63.3974C37.1459 63.3039 37.1459 63.2104 37.1459 63.1636C37.1459 59.4234 39.8627 55.4026 43.8911 55.4026C44.4532 55.4026 44.9685 55.4493 45.3901 55.5429C45.8585 55.6364 46.2801 56.0104 46.3738 56.4779C46.5143 56.9454 46.3738 57.4597 45.999 57.787C44.6406 59.0493 43.8443 61.0597 43.8443 63.1636C43.8443 66.5766 46.4674 68.961 50.2148 68.961C50.4959 68.961 50.7301 68.961 50.9643 68.961C51.5264 68.961 51.9011 69.2416 52.0885 69.6156C52.2759 70.0364 52.1822 70.5039 51.8543 70.8312C50.8706 71.813 48.9501 72.9818 45.5306 72.9818V72.9351ZM37.3332 20.7117C38.4106 22.0208 39.3006 23.6571 40.0032 25.574L40.2374 26.2286L39.5348 26.4156C38.3638 26.7428 37.099 27.2571 36.9585 27.3039C33.3048 28.8467 30.1664 31.3714 27.9648 34.5974C25.6695 37.9636 24.4985 41.9377 24.4985 46.0987C24.4985 49.0909 25.0138 51.9428 26.0443 54.4675C26.9343 56.6649 28.199 58.6753 29.7916 60.3117C29.4638 58.9558 29.2764 57.5532 29.2764 56.1039C29.2764 51.4753 31.0564 47.174 34.2416 44.0883C37.3801 41.0493 41.5959 39.3662 46.0927 39.3662C50.5895 39.3662 55.2269 41.1428 58.3185 44.1351C59.5364 45.3039 60.4732 46.426 61.2227 47.5948C61.5974 47.2675 61.9253 46.9403 62.1595 46.613C63.4711 45.0701 64.1269 43.1065 64.1269 40.7688C64.1269 36.374 62.5343 32.8208 59.349 30.2026C56.3043 27.6779 52.0417 26.1818 46.9359 25.8078L45.5306 25.7143L45.3432 25.387C45.3432 25.387 42.8606 20.6649 37.4738 20.6649C37.3801 20.6649 37.3332 20.6649 37.2395 20.6649L37.3332 20.7117Z" fill="#DFB666"/>
<path d="M63.0964 25.8078C59.3491 22.7221 54.2901 20.7584 48.4348 20.1974C47.0296 18.8415 45.3433 17.4389 43.2354 16.6441C40.9869 15.7558 38.6917 15.3351 36.2559 15.3351C32.8364 15.3351 30.1664 16.6909 29.3233 17.9065C28.9954 18.374 28.9017 19.0753 29.4169 19.4493C30.4943 20.1974 31.9464 21.4597 32.6491 23.0493V23.1428L32.6022 23.1896C28.9017 25.1532 25.7164 28.0052 23.3743 31.4649C20.4701 35.7662 18.9243 40.8623 18.9243 46.1922C18.9243 49.9325 19.5801 53.4857 20.8917 56.7117C22.1564 59.8909 24.0301 62.6961 26.4659 65.0338C28.8548 67.3714 31.7122 69.1948 34.9912 70.4104C38.2701 71.6727 41.8769 72.2805 45.6712 72.2805C48.8564 72.2805 50.5896 71.2052 51.5264 70.3169C51.8075 70.0364 51.5733 69.5221 51.1517 69.5688C50.9175 69.5688 50.6364 69.5688 50.3085 69.5688C46.3738 69.5688 43.2354 67.0441 43.2354 63.1169C43.2354 60.8727 44.0785 58.6753 45.5775 57.2727C45.9522 56.8987 45.7648 56.2909 45.2496 56.1506C44.8748 56.0571 44.4064 56.0104 43.8912 56.0104C40.0501 56.0104 37.8017 59.8909 37.8017 63.1169C37.8017 65.548 38.8322 66.9974 38.8322 66.9974C38.8322 66.9974 35.1317 64.0519 35.1317 56.5714C35.1317 53.4857 36.2559 50.2597 38.3638 48.2026C40.4248 46.1922 43.1885 45.1169 46.2333 45.1169C50.0275 45.1169 53.0254 46.426 55.1801 48.9974C57.288 51.4753 57.9438 54.4208 58.178 55.9636C58.4122 57.5532 58.7401 59.1428 60.0048 59.1428C60.4733 59.1428 60.9885 58.8623 61.5038 58.348C62.2533 57.5532 63.0027 56.0104 62.8622 54.1403C62.8622 54 62.8622 53.813 62.8154 53.626V53.5325H62.8622C64.3143 52.6909 65.6259 51.6156 66.7033 50.3065C68.858 47.7351 69.9822 44.4623 69.9822 40.8156C69.9822 34.7377 67.6401 29.548 63.1433 25.8545L63.0964 25.8078ZM62.7685 47.0338C62.3469 47.548 61.8317 48.0623 61.2227 48.4831L61.1291 48.5766L61.0354 48.4364C60.2859 47.174 59.2554 45.9117 57.8969 44.6026C54.9459 41.7506 50.5427 40.0208 46.1396 40.0208C41.7364 40.0208 37.7548 41.6571 34.7569 44.5558C31.7122 47.548 30.0259 51.6623 30.0259 56.1039C30.0259 58.2078 30.4006 60.2182 31.1501 62.0883L31.3375 62.5558L30.9627 62.2286C30.588 61.948 30.2601 61.6208 29.9322 61.2935C28.0117 59.4234 26.5596 57.226 25.5291 54.7013C24.4517 52.0831 23.9364 49.1844 23.9364 46.0987C23.9364 41.7974 25.2012 37.6831 27.5433 34.2234C29.8385 30.8571 33.0238 28.2389 36.818 26.6493C36.9117 26.6493 38.2701 26.0415 39.488 25.7143C38.8791 24.0312 37.8954 21.8805 36.0685 20.0571C43.048 18.9818 46.1396 25.013 46.1396 25.013H47.1701C52.3696 25.4338 56.8196 27.0234 59.958 29.6415C63.2838 32.4 64.9701 36.1403 64.9701 40.7221C64.9701 43.2 64.2675 45.3039 62.8622 46.987L62.7685 47.0338Z" fill="url(#paint2_linear_238_3490)"/>
<path d="M44.4999 80.9299C27.8241 80.9299 13.5841 70.2701 8.24414 55.4026C12.9752 70.9247 27.4026 82.239 44.4999 82.239C61.5973 82.239 76.0247 70.9247 80.7557 55.4026C75.4157 70.2701 61.2226 80.9299 44.4999 80.9299Z" fill="url(#paint3_linear_238_3490)"/>
<path d="M44.5 7.90129C27.8242 7.90129 13.631 18.6078 8.29102 33.4753C12.9752 17.9532 27.4494 6.59219 44.5 6.59219C61.5505 6.59219 76.0247 17.9065 80.7558 33.4286C75.4158 18.561 61.2226 7.90129 44.5 7.90129Z" fill="#9A662C"/>
<path d="M61.2227 48.4831L61.129 48.5766L61.0354 48.4364C60.2859 47.174 59.2554 45.9117 57.8969 44.6026C54.9459 41.7507 50.5427 40.0208 46.1396 40.0208C41.7364 40.0208 37.7548 41.6571 34.7569 44.5558C31.7122 47.5481 30.0259 51.6623 30.0259 56.1039C30.0259 56.3377 30.0727 56.5714 30.0727 56.8052C30.2132 52.5974 31.8527 48.7636 34.7569 45.9117C37.7548 42.9662 41.7832 41.3766 46.1396 41.3766C50.4959 41.3766 54.9459 43.1065 57.8969 45.9584C59.2554 47.2675 60.2859 48.5299 61.0354 49.7922L61.129 49.9325L61.2227 49.839C61.7848 49.4182 62.3001 48.9039 62.7685 48.3896C64.1738 46.7065 64.8764 44.6026 64.8764 42.1247C64.8764 41.8442 64.8296 41.5636 64.7827 41.2831C64.689 43.5273 64.0332 45.4442 62.7685 47.0338C62.3469 47.5481 61.8317 48.0623 61.2227 48.4831Z" fill="#FFF2BD"/>
<path d="M38.7852 68.3532C38.7852 68.3532 38.1763 67.5117 37.8952 66.0156C36.8647 64.7065 35.3189 61.948 35.1316 57.3662C35.1316 57.5532 35.0847 57.7402 35.0847 57.9272C35.0847 65.4078 38.7852 68.3532 38.7852 68.3532Z" fill="#FFEEA6"/>
<path d="M36.1621 16.6441C38.5978 16.6441 40.8931 17.0649 43.1415 17.9532C45.2026 18.7948 46.8889 20.1506 48.341 21.5065C54.1963 22.0675 59.2552 24.0312 63.0026 27.1169C67.3121 30.7169 69.6073 35.6727 69.7947 41.4701C69.7947 41.2364 69.8415 40.9558 69.8415 40.7221C69.8415 34.6441 67.4994 29.4545 63.0026 25.761C59.2552 22.6753 54.1963 20.7117 48.341 20.1506C46.9357 18.7948 45.2494 17.3922 43.1415 16.5974C40.8931 15.7091 38.5978 15.2883 36.1621 15.2883C32.7426 15.2883 30.0726 16.6441 29.2294 17.8597C28.9484 18.2805 28.9015 18.7948 29.2294 19.2156C30.0726 18 32.7894 16.6441 36.1621 16.6441Z" fill="#FFF2BD"/>
<path d="M45.2028 56.1506C44.828 56.0571 44.3596 56.0104 43.8444 56.0104C40.0033 56.0104 37.7549 59.8909 37.7549 63.1169C37.7549 63.3506 37.7549 63.5377 37.8017 63.7247C38.1296 60.6857 40.2844 57.3662 43.8444 57.3662C44.3596 57.3662 44.7812 57.413 45.2028 57.5065C45.2028 57.5065 45.2028 57.5065 45.2496 57.5532C45.3433 57.4597 45.3901 57.3195 45.5307 57.226C45.9054 56.8519 45.718 56.2441 45.2028 56.1039V56.1506Z" fill="#FFEEA6"/>
<path d="M50.2148 69.6156C46.5143 69.6156 43.5632 67.3714 43.2353 63.8182C43.2353 64.0519 43.1885 64.2857 43.1885 64.5195C43.1885 68.4468 46.2801 70.9714 50.2616 70.9714C50.4022 70.9714 50.5427 70.9714 50.6364 70.9714C50.9643 70.7377 51.1985 70.5506 51.4327 70.3169C51.7137 70.0364 51.4795 69.5221 51.0579 69.5688C50.8237 69.5688 50.5427 69.5688 50.2148 69.5688V69.6156Z" fill="#FFEEA6"/>
<path d="M23.2806 32.8208C25.6227 29.361 28.8079 26.5091 32.5085 24.5454H32.6021L32.5553 24.3584C32.4148 24.0312 32.2274 23.7506 32.04 23.4701C28.5737 25.4338 25.529 28.1922 23.2806 31.4649C20.3764 35.7662 18.8306 40.8623 18.8306 46.1922C18.8306 46.3792 18.8774 46.613 18.8774 46.8C19.0179 41.7506 20.5169 36.9351 23.2806 32.8675V32.8208Z" fill="#FFEEA6"/>
<path d="M25.4822 56.1039C26.5128 58.6286 27.9649 60.826 29.8854 62.6961C30.2133 63.0234 30.5412 63.3039 30.9159 63.6312L31.2907 63.9584L31.1033 63.4909C30.9159 63.0234 30.8222 62.5558 30.6817 62.0883C30.4007 61.8545 30.1196 61.574 29.8386 61.3402C27.918 59.4701 26.4659 57.2727 25.4354 54.748C24.4517 52.3169 23.9365 49.6052 23.8896 46.7532C23.8896 46.987 23.8428 47.2675 23.8428 47.5013C23.8428 50.587 24.358 53.4857 25.4354 56.1039H25.4822Z" fill="#FFEEA6"/>
<path d="M38.9259 25.948C38.9259 25.948 39.2538 25.8545 39.3943 25.8078C38.9259 24.4987 38.2232 22.9558 37.099 21.5065C36.7243 21.5065 36.3496 21.5065 35.928 21.5065C37.3332 22.9091 38.2701 24.4987 38.879 25.948H38.9259Z" fill="#FFEEA6"/>
<path d="M44.5 2.38441C68.4832 2.38441 87.9695 21.6467 88.2974 45.5377C88.2974 45.3506 88.2974 45.1169 88.2974 44.9299C88.3442 20.7584 68.7174 1.16882 44.5 1.16882C20.2826 1.16882 0.702637 20.7584 0.702637 44.8831C0.702637 45.0701 0.702637 45.3039 0.702637 45.4909C1.03053 21.6467 20.5168 2.38441 44.5 2.38441Z" fill="#FFF2BD"/>
<path d="M44.5 84.7169C66.1879 84.7169 83.8473 67.0909 83.8473 45.4442C83.8473 45.2104 83.8473 45.0234 83.8473 44.8364C83.5195 66.2026 66.0005 83.5013 44.5 83.5013C22.9995 83.5013 5.52736 66.1558 5.19946 44.7896C5.19946 45.0234 5.19946 45.2104 5.19946 45.3974C5.19946 67.0442 22.8589 84.6701 44.5468 84.6701L44.5 84.7169Z" fill="#FFF2BD"/>
<defs>
<linearGradient id="paint0_linear_238_3490" x1="44.5" y1="0" x2="44.5" y2="88.8312" gradientUnits="userSpaceOnUse">
<stop stop-color="#F7E790"/>
<stop offset="1" stop-color="#E1B968"/>
</linearGradient>
<linearGradient id="paint1_linear_238_3490" x1="44.5" y1="82.2389" x2="44.5" y2="6.63895" gradientUnits="userSpaceOnUse">
<stop stop-color="#F7E790"/>
<stop offset="1" stop-color="#E1B968"/>
</linearGradient>
<linearGradient id="paint2_linear_238_3490" x1="20" y1="20.5863" x2="56.9296" y2="57.6564" gradientUnits="userSpaceOnUse">
<stop stop-color="#FFF2B0"/>
<stop offset="1" stop-color="#FFF2BD"/>
</linearGradient>
<linearGradient id="paint3_linear_238_3490" x1="8.29098" y1="68.8208" x2="80.7557" y2="68.8208" gradientUnits="userSpaceOnUse">
<stop stop-color="#F7E790"/>
<stop offset="1" stop-color="#E1B968"/>
</linearGradient>
</defs>
</svg>
