<!-- src/assets/icons/energy.svg -->
<svg width="23" height="33" viewBox="0 0 23 33" xmlns="http://www.w3.org/2000/svg">
  <defs>
    <linearGradient id="energy-gradient" x1="0%" y1="0%" x2="100%" y2="100%">
      <stop offset="0%" stop-color="#deb565" />
      <stop offset="45.29%" stop-color="#edc871" />
      <stop offset="100%" stop-color="#ffffa8" />
    </linearGradient>
  </defs>
  <path fill-rule="evenodd" clip-rule="evenodd" d="M14.4595 0.0652189C14.9812 0.23797 15.3332 0.723003 15.3332 1.26931V13.5386H21.7222C22.2062 13.5386 22.6486 13.8102 22.865 14.2402C23.0816 14.6703 23.0349 15.1847 22.7444 15.5694L9.96684 32.4922C9.63683 32.9293 9.06216 33.1075 8.54048 32.9349C8.01868 32.7621 7.66675 32.2771 7.66675 31.7306V19.4615H1.2778C0.79381 19.4615 0.351354 19.1897 0.134913 18.7599C-0.0815443 18.3299 -0.0348286 17.8153 0.25557 17.4308L13.0332 0.507775C13.3632 0.0707187 13.9377 -0.107549 14.4595 0.0652189Z" fill="url(#energy-gradient)"/>
</svg>
