<svg width="95" height="104" viewBox="0 0 95 104" fill="none" xmlns="http://www.w3.org/2000/svg">
<path d="M9.5 94.5123H30.6929V62.6429C30.6929 61.0236 31.2413 59.6658 32.338 58.5695C33.4358 57.4742 34.7953 56.9265 36.4167 56.9265H58.5833C60.2047 56.9265 61.5642 57.4742 62.662 58.5695C63.7587 59.6658 64.3071 61.0236 64.3071 62.6429V94.5123H85.5V38.5582C85.5 38.2346 85.4288 37.941 85.2863 37.6775C85.1448 37.4139 84.9522 37.1804 84.7083 36.9769L48.6574 9.91312C48.3323 9.62954 47.9465 9.48775 47.5 9.48775C47.0535 9.48775 46.6677 9.62954 46.3426 9.91312L10.2917 36.9769C10.0478 37.1804 9.8552 37.4139 9.71375 37.6775C9.57125 37.941 9.5 38.2346 9.5 38.5582V94.5123ZM0 94.5123V38.5582C0 36.7482 0.405332 35.0335 1.216 33.4143C2.02772 31.794 3.14872 30.4599 4.579 29.412L40.6315 2.28655C42.6318 0.762186 44.9181 0 47.4905 0C50.0629 0 52.3556 0.762186 54.3685 2.28655L90.421 29.412C91.8513 30.4599 92.9723 31.794 93.784 33.4143C94.5947 35.0335 95 36.7482 95 38.5582V94.5123C95 97.0992 94.0643 99.3273 92.1928 101.196C90.3213 103.065 88.0903 104 85.5 104H60.5324C58.91 104 57.5505 103.452 56.4537 102.355C55.356 101.26 54.8071 99.9024 54.8071 98.2821V66.4143H40.1929V98.2821C40.1929 99.9024 39.644 101.26 38.5463 102.355C37.4495 103.452 36.09 104 34.4676 104H9.5C6.90967 104 4.67875 103.065 2.80725 101.196C0.935749 99.3273 0 97.0992 0 94.5123Z" fill="#C9C8C8"/>
</svg>
